<svg xmlns="http://www.w3.org/2000/svg" xmlns:xlink="http://www.w3.org/1999/xlink" xmlns:lucid="lucid" width="1720" height="1056.35"><g transform="translate(-20 -100)" lucid:page-tab-id="0_0"><path d="M200 128c0-4.42 3.58-8 8-8h1504c4.42 0 8 3.58 8 8v1000.35c0 4.42-3.58 8-8 8H208c-4.42 0-8-3.58-8-8z" stroke="#232f3e" fill="#fff" fill-opacity="0"/><path d="M200 120h56v56h-56v-56z" stroke="#fff" stroke-opacity="0" fill="#232f3e"/><path d="M240.88 161.22h-25c-4.13.05-7.57-3.1-7.9-7.2v-.64c-.15-3.4 1.97-6.38 5.25-7.36v-.66c.12-4.22 2.44-7.75 6.24-9.57 4.12-1.86 8.73-.96 11.8 2.3 1.1 1.1 1.85 2.2 2.45 3.6 1.2-1 2.72-1.32 4.24-.9 2.24.8 3.68 2.74 3.76 5.1 3.68.65 6.32 3.8 6.28 7.56 0 7.07-7.04 7.73-7.12 7.76zm-26.7-13.88c-2.83.6-4.75 3.14-4.6 6.04v.53c.3 3.33 3.1 5.84 6.4 5.76h24.98c3.04-.3 5.4-2.64 5.68-5.7.28-3.43-2.24-6.5-5.68-6.78-.44-.05-.72-.44-.64-.87.08-1.83-1-3.44-2.72-4.13-1.32-.37-2.64.13-3.44 1.24-.2.25-.44.38-.76.33-.28-.05-.48-.24-.6-.5-.6-1.6-1.4-2.85-2.6-4.04-2.68-2.8-6.6-3.6-10.13-2-3.24 1.6-5.2 4.63-5.32 8.24-.04.4-.04.74 0 1.14.04.4-.2.76-.6.84z" stroke="#fff" stroke-opacity="0" fill="#fff"/><use xlink:href="#a" transform="matrix(1,0,0,1,271,140) translate(0 14.4)"/><use xlink:href="#b" transform="matrix(1,0,0,1,271,140) translate(45.3 14.4)"/><path d="M539 352.3c0-16.56 13.43-30 30-30h526c16.57 0 30 13.44 30 30v228c0 16.58-13.43 30-30 30H569c-16.57 0-30-13.42-30-30z" stroke="#474747" fill-opacity="0"/><path d="M600.97 310.55v-5.9c0-7.25-5.88-13.13-13.12-13.13-7.24 0-13.12 5.88-13.12 13.13v5.9h6.64v-5.9c0-3.58 2.9-6.5 6.48-6.5 3.57 0 6.48 2.92 6.48 6.5v5.9h6.64z" fill="#876a22"/><path d="M600.98 310.57h5.42v20.84H569v-20.83h5.72v-7.1c0-7.28 5.87-13.16 13.13-13.16 7.26 0 13.13 5.9 13.13 13.16v7.1zm-6.66 0v-7.1c0-3.58-2.88-6.5-6.47-6.5-3.6 0-6.47 2.92-6.47 6.5v7.1h12.94z" fill="#daa835"/><path d="M569 331.4h37.4v.9H569z" fill="#876a22"/><use xlink:href="#c" transform="matrix(1,0,0,1,539,580.3125000000001) translate(197.2716049382716 12.888888888888888)"/><use xlink:href="#d" transform="matrix(1,0,0,1,539,580.3125000000001) translate(250.50617283950618 12.888888888888888)"/><use xlink:href="#e" transform="matrix(1,0,0,1,539,580.3125000000001) translate(280.08641975308643 12.888888888888888)"/><use xlink:href="#f" transform="matrix(1,0,0,1,539,580.3125000000001) translate(299.8395061728395 12.888888888888888)"/><path d="M380 182c0-16.57 13.43-30 30-30h1240c16.57 0 30 13.43 30 30v884.35c0 16.57-13.43 30-30 30H410c-16.57 0-30-13.43-30-30z" stroke="#474747" fill-opacity="0"/><path d="M488 154.4v3.54c0 6.42-7.1 13.05-15.76 13.05h-46.48c-8.66 0-15.75-6.64-15.75-13.06v-3.54z" fill="#9d5125"/><path d="M440.03 120c8.03 0 14.82 4.4 18.17 11.67 4.6-3.14 10.92-1.98 14.04 2.65 1.17 1.64 1.7 3.32 1.8 5.3 7.87.68 13.95 8.25 13.95 14.27v1.3c0 6.45-7.1 13-15.76 13h-46.5c-8.64 0-15.74-6.55-15.74-13v-1.3c0-5.02 4.2-11.87 10.06-13.56v-.57c.08-10.95 8.97-19.82 19.97-19.77z" fill="#f58535"/><path d="M428.9 143.13h3.08l3.1 14.58 3.32-14.54h3.1l-4.6 18.2h-3.7zM443.37 143.13h5.77c3.5 0 5.04 2.2 5.04 5.3 0 3.1-1.9 5.4-5.33 5.4h-2.57v7.53h-2.9zm2.9 8.5h2.08c1.56 0 2.9-.83 2.9-3.14 0-1.98-.78-3.17-3.1-3.17h-1.87zM467.8 154.83v.38c0 3.32-1.3 6.52-5.6 6.52-4.6 0-6.04-2.97-6.04-9.47s1.43-9.46 6.05-9.46c5.2 0 5.54 3.8 5.54 5.7v.37h-2.9v-.3c0-1.7-.5-3.64-2.6-3.57-2.08.08-3.1 1.35-3.1 7.22 0 5.87.92 7.3 3.14 7.3 2.42 0 2.7-2.7 2.7-4.42v-.3z" fill="#fff"/><use xlink:href="#g" transform="matrix(1,0,0,1,380,1066.3541666666667) translate(569.1111111111111 12.799999999999999)"/><use xlink:href="#h" transform="matrix(1,0,0,1,380,1066.3541666666667) translate(624.4197530864197 12.799999999999999)"/><use xlink:href="#i" transform="matrix(1,0,0,1,380,1066.3541666666667) translate(684.5679012345679 12.799999999999999)"/><path d="M539 698.35c0-16.56 13.43-30 30-30h526c16.57 0 30 13.44 30 30v228c0 16.57-13.43 30-30 30H569c-16.57 0-30-13.43-30-30z" stroke="#474747" fill-opacity="0"/><path d="M600.97 656.6v-5.9c0-7.26-5.88-13.14-13.12-13.14-7.24 0-13.12 5.88-13.12 13.13v5.9h6.64v-5.9c0-3.6 2.9-6.5 6.48-6.5 3.57 0 6.48 2.9 6.48 6.5v5.9h6.64z" fill="#876a22"/><path d="M600.98 656.6h5.42v20.85H569V656.6h5.72v-7.1c0-7.27 5.87-13.15 13.13-13.15 7.26 0 13.13 5.88 13.13 13.15v7.1zm-6.66 0v-7.1c0-3.57-2.88-6.5-6.47-6.5-3.6 0-6.47 2.93-6.47 6.5v7.1h12.94z" fill="#daa835"/><path d="M569 677.45h37.4v.9H569z" fill="#876a22"/><use xlink:href="#c" transform="matrix(1,0,0,1,539,926.3541666666667) translate(197.7716049382716 12.888888888888888)"/><use xlink:href="#d" transform="matrix(1,0,0,1,539,926.3541666666667) translate(251.00617283950618 12.888888888888888)"/><use xlink:href="#j" transform="matrix(1,0,0,1,539,926.3541666666667) translate(280.58641975308643 12.888888888888888)"/><use xlink:href="#k" transform="matrix(1,0,0,1,539,926.3541666666667) translate(300.3395061728395 12.888888888888888)"/><path d="M62.44 629.78H41.7c-.95 0-1.7-.76-1.7-1.7v-2.54c0-9.48 6.23-17.44 15.5-19.67.4-.1.8-.04 1.2.17 2.73 1.46 5.68 1.46 8.4 0 .4-.2.8-.26 1.22-.17 2.43.6 4.43 1.47 6.5 2.85l-1.9 2.83c-1.55-1-3-1.68-4.8-2.15-3.45 1.58-7 1.58-10.43 0-7.4 2.06-12.3 8.5-12.3 16.14v.84h19.04z" stroke="#fff" stroke-opacity="0" fill="#232f3e"/><path d="M60.88 610.46c-6.17 0-11.17-5-11.17-11.14 0-6.16 5-11.15 11.18-11.15 6.16-.07 11.2 4.88 11.26 11 .04 4.27-2.1 7.9-5.86 9.9-1.72.97-3.4 1.4-5.4 1.4zm0-18.9c-4.3 0-7.83 3.45-7.85 7.76 0 2.92 1.48 5.4 4.06 6.8 2.43 1.3 5.12 1.3 7.57 0 2.6-1.4 4.1-3.95 4.06-6.9-.05-4.27-3.57-7.68-7.85-7.64zM118.32 629.78H97.57v-3.4h19.04v-.83c0-7.67-4.9-14.1-12.25-16.17-3.45 1.6-7 1.6-10.46 0-1.82.5-3.3 1.2-4.84 2.28l-1.94-2.8c2.07-1.44 4.08-2.35 6.5-2.97.44-.1.86-.06 1.26.16 2.7 1.46 5.7 1.46 8.42 0 .4-.22.8-.27 1.2-.17 9.25 2.22 15.5 10.16 15.5 19.65v2.53c0 .94-.76 1.68-1.68 1.7z" stroke="#fff" stroke-opacity="0" fill="#232f3e"/><path d="M99.08 610.46c-6.2 0-11.23-5.05-11.23-11.25S92.9 588 99.13 588c6.2 0 11.23 5.05 11.23 11.25 0 4.23-2.14 7.82-5.85 9.84-1.75.94-3.44 1.36-5.42 1.36zm0-18.9c-4.3 0-7.8 3.45-7.83 7.76-.02 2.92 1.46 5.42 4.05 6.8 2.43 1.3 5.13 1.3 7.6 0 2.62-1.4 4.13-3.97 4.08-6.96-.1-4.26-3.62-7.68-7.9-7.6zM107.2 668H52.73c-.92 0-1.67-.75-1.67-1.7v-3.6c-.06-13.1 8.6-24.1 21.32-27.18.46-.13.86-.06 1.27.13 4.04 2.18 8.5 2.18 12.6 0 .34-.2.75-.26 1.2-.13 12.78 3.06 21.45 14.06 21.4 27.18v3.6c0 .95-.76 1.7-1.68 1.7zm-52.72-3.38h50.97v-1.92c0-11.27-7.28-20.74-18.2-23.66-4.8 2.3-9.83 2.3-14.62 0-10.93 2.92-18.15 12.4-18.15 23.66z" stroke="#fff" stroke-opacity="0" fill="#232f3e"/><path d="M80.02 640.64c-2.7 0-5-.58-7.4-1.86-7.4-4.07-10.13-13.34-6.1-20.77 4.1-7.4 13.38-10.12 20.83-6.08 7.42 4.07 10.15 13.34 6.1 20.77-1.47 2.68-3.4 4.6-6.1 6.08-2.36 1.28-4.66 1.86-7.33 1.86zm0-26.76c-4.44-.06-8.28 2.17-10.42 6.1-3.07 5.64-.98 12.74 4.7 15.83 3.67 1.97 7.7 1.97 11.4 0 3.95-2.13 6.22-5.95 6.16-10.42-.1-6.42-5.4-11.6-11.84-11.5z" stroke="#fff" stroke-opacity="0" fill="#232f3e"/><path d="M118.78 629.78H79.06c-.68 0-1.23-.54-1.23-1.23v-2.64c-.04-9.53 6.3-17.56 15.56-19.8.33-.1.63-.06.92.08 2.95 1.6 6.2 1.6 9.2 0 .25-.14.54-.2.88-.1 9.32 2.24 15.64 10.27 15.6 19.83v2.65c0 .7-.55 1.23-1.22 1.23zm-38.46-2.47h37.2v-1.4c0-8.2-5.32-15.1-13.3-17.25-3.5 1.7-7.16 1.7-10.66 0-7.97 2.14-13.24 9.05-13.24 17.26z" stroke="#fff" stroke-opacity="0" stroke-width=".73" fill="#fff" fill-opacity="0"/><path d="M80.94 629.78H41.22c-.67 0-1.22-.54-1.22-1.23v-2.64c-.04-9.53 6.28-17.56 15.56-19.8.34-.1.63-.06.93.08 2.94 1.6 6.2 1.6 9.18 0 .25-.14.55-.2.88-.1 9.32 2.24 15.65 10.27 15.6 19.83v2.65c0 .7-.54 1.23-1.22 1.23zM42.5 627.3h37.18v-1.4c0-8.2-5.3-15.1-13.28-17.25-3.5 1.7-7.17 1.7-10.67 0-7.97 2.14-13.24 9.05-13.24 17.26z" stroke="#fff" stroke-opacity="0" stroke-width=".73" fill="#fff" fill-opacity="0"/><use xlink:href="#l" transform="matrix(1,0,0,1,10,677) translate(46.55 14.4)"/><path d="M315 621.36c0 31.8-25.76 57.63-57.5 57.63S200 653.16 200 621.35c0-31.8 25.76-57.63 57.5-57.63s57.5 25.82 57.5 57.63z" fill="#9d5025"/><path d="M200 616.62h115v4.73H200v-4.73z" fill="#9d5025"/><path d="M315 616.63c0 31.8-25.76 57.63-57.5 57.63S200 648.44 200 616.63c0-31.8 25.76-57.63 57.5-57.63s57.5 25.82 57.5 57.63z" fill="#f58536"/><path d="M214.15 622.36v-1.5c.43-7 4.33-12.8 10.65-15.86.6-12.86 11.52-22.8 24.43-22.12 8.05.38 14.8 4.5 18.88 11.47 6.6-2.77 14.13.28 16.9 6.82.43.95.7 1.72.86 2.67 8.67 1.72 14.9 10.03 14.9 17.02v1.4c0 8.53-8.83 16-18.88 16h-48.94c-9.96.07-18.8-7.42-18.8-15.9z" fill="#fff"/><path d="M269.27 600.48l-3.67 2.54-1.87-4.06c-2.85-6.34-8.7-10.23-15.66-10.27H248c-9.52 0-17.3 7.77-17.3 17.38v3.23l-2.7.8c-4.57 1.83-7.57 5.85-7.94 10.8v1.4c0 4.66 5.7 10.08 12.96 10.08h49c7.33 0 12.95-5.42 12.95-10.1v-1.4c0-4.7-5.25-10.87-11.3-11.35l-3.3-.26-.24-3.28c0-1.4-.44-2.54-1.2-3.68-2.17-3.2-6.5-3.98-9.66-1.8z" fill="#f58536"/><use xlink:href="#m" transform="matrix(1,0,0,1,200,679) translate(27.025 14.4)"/><use xlink:href="#n" transform="matrix(1,0,0,1,200,679) translate(24.025 36)"/><path d="M635 635.38c0 31.8-25.76 57.63-57.5 57.63S520 667.2 520 635.4c0-31.8 25.76-57.63 57.5-57.63s57.5 25.82 57.5 57.63z" fill="#9d5025"/><path d="M635 630.65c0 31.8-25.76 57.63-57.5 57.63S520 662.46 520 630.65c0-31.8 25.76-57.63 57.5-57.63s57.5 25.82 57.5 57.63z" fill="#f58536"/><path d="M594.27 584.1v20.92H560.7V584.1h33.57zM620.22 644.66v17.04h-17v-17.04h17zM598.73 644.66v17.04h-17v-17.04h17zM572.55 644.66v17.04h-17v-17.04h17zM551.05 644.66v17.04h-17v-17.04h17z" fill="#fff"/><path d="M541.02 629.9h3.06v16.73h-3.06V629.9z" fill="#fff"/><path d="M541.02 629.9h24.57v3.07H541v-3.06z" fill="#fff"/><path d="M562.53 629.9h3.06v16.73h-3.07V629.9zM588.7 629.9h3.06v16.73h-3.06V629.9z" fill="#fff"/><path d="M588.7 629.9h24.56v3.07H588.7v-3.06z" fill="#fff"/><path d="M610.2 629.9h3.06v16.73h-3.05V629.9zM551.8 617.97h3.06v13.47h-3.06v-13.47zM575.96 601.94h3.06v16.28h-3.06v-16.28z" fill="#fff"/><path d="M551.8 616.7h50.77v3.05H551.8v-3.06z" fill="#fff"/><path d="M599.5 617.97h3.07v13.47h-3.06v-13.47z" fill="#fff"/><use xlink:href="#o" transform="matrix(1,0,0,1,520,693.0208333333528) translate(13.574999999999996 14.4)"/><use xlink:href="#p" transform="matrix(1,0,0,1,520,693.0208333333528) translate(37.5 36)"/><use xlink:href="#q" transform="matrix(1,0,0,1,520,693.0208333333528) translate(22.049999999999997 57.6)"/><path d="M757.5 592.6v-82.9h116.47" stroke="#000" stroke-width="2" fill="none"/><path d="M758.5 593.64l-1-.04h-.53l-.47.03v-1.06h2z"/><path d="M889.23 509.7l-14.26 4.62v-9.27z" stroke="#000" stroke-width="2"/><path d="M1125 502.05c0 31.8-25.76 57.63-57.5 57.63s-57.5-25.82-57.5-57.63c0-31.82 25.76-57.63 57.5-57.63s57.5 25.8 57.5 57.63z" fill="#9d5025"/><path d="M1125 497.32c0 31.8-25.76 57.63-57.5 57.63s-57.5-25.82-57.5-57.63c0-31.8 25.76-57.63 57.5-57.63s57.5 25.8 57.5 57.62z" fill="#f58536"/><path d="M1083.06 470.55h6.06v53.5h-6.06v-53.5zM1100.1 484.1l15.88 12.95-15.87 13.5V484.1z" fill="#fff"/><path d="M1043.98 494.3l3.5 2.8-3.85 3.25h59.15v-6.06h-58.8zM1043.63 473.6h45.5v-6.07h-45.14l3.45 2.8-3.82 3.27zM1047.45 523.84l-3.82 3.26h45.5v-6.08h-45.14l3.45 2.82zM1031 486.73l12.68 10.35-12.7 10.82v-21.17zM1031 459.98l12.68 10.36-12.7 10.78v-21.14zM1031 513.5l12.68 10.35-12.7 10.78V513.5z" fill="#fff"/><use xlink:href="#r" transform="matrix(1,0,0,1,1010,559.6875000000389) translate(4.424999999999997 14.4)"/><use xlink:href="#n" transform="matrix(1,0,0,1,1010,559.6875000000389) translate(43.625 14.4)"/><path d="M815.9 653.55h37.78V767h20.3" stroke="#000" stroke-width="2" fill="none"/><path d="M815.93 654.55h-.98l-.05-1 .04-1h1z"/><path d="M889.23 767l-14.26 4.64v-9.28z" stroke="#000" stroke-width="2"/><path d="M121 628h38.75v.18H181" stroke="#000" stroke-width="2" fill="none"/><path d="M121.03 629h-1.2l.17-.45V627h1.03z"/><path d="M196.26 628.18L182 632.8v-9.26z" stroke="#000" stroke-width="2"/><path d="M1166.64 352.3c0-16.56 13.43-30 30-30H1590c16.57 0 30 13.44 30 30v228c0 16.58-13.43 30-30 30h-393.36c-16.57 0-30-13.42-30-30z" stroke="#474747" fill-opacity="0"/><path d="M1228.6 310.55v-5.9c0-7.25-5.87-13.13-13.1-13.13-7.25 0-13.13 5.88-13.13 13.13v5.9h6.64v-5.9c0-3.58 2.92-6.5 6.5-6.5 3.56 0 6.47 2.92 6.47 6.5v5.9h6.64z" fill="#876a22"/><path d="M1228.62 310.57h5.42v20.84h-37.4v-20.83h5.72v-7.1c0-7.28 5.87-13.16 13.13-13.16 7.24 0 13.12 5.9 13.12 13.16v7.1zm-6.66 0v-7.1c0-3.58-2.88-6.5-6.47-6.5-3.6 0-6.48 2.92-6.48 6.5v7.1h12.94z" fill="#daa835"/><path d="M1196.64 331.4h37.4v.9h-37.4z" fill="#876a22"/><use xlink:href="#s" transform="matrix(1,0,0,1,1166.6393442622953,580.3125) translate(127.8148148148148 12.888888888888888)"/><use xlink:href="#d" transform="matrix(1,0,0,1,1166.6393442622953,580.3125) translate(187.96296296296293 12.888888888888888)"/><use xlink:href="#e" transform="matrix(1,0,0,1,1166.6393442622953,580.3125) translate(217.5432098765432 12.888888888888888)"/><use xlink:href="#t" transform="matrix(1,0,0,1,1166.6393442622953,580.3125) translate(237.2962962962963 12.888888888888888)"/><path d="M1305.96 405.36h75.44c19.78 0 19.78 0 19.78 19.72v75.2c0 19.7 0 19.7-19.78 19.7h-75.44c-19.78 0-19.78 0-19.78-19.7v-75.2c0-19.72 0-19.72 19.78-19.72z" fill="#9d5025"/><path d="M1305.96 400h75.44c19.78 0 19.78 0 19.78 19.72v75.2c0 19.7 0 19.7-19.78 19.7h-75.44c-19.78 0-19.78 0-19.78-19.7v-75.2c0-19.72 0-19.72 19.78-19.72z" fill="#f58536"/><use xlink:href="#u" transform="matrix(1,0,0,1,1286.1803278688526,520) translate(16.025 14.4)"/><use xlink:href="#v" transform="matrix(1,0,0,1,1286.1803278688526,520) translate(78.975 14.4)"/><use xlink:href="#w" transform="matrix(1,0,0,1,1286.1803278688526,520) translate(14.25 36)"/><path d="M1166.64 698.35c0-16.56 13.43-30 30-30H1470c16.57 0 30 13.44 30 30v228c0 16.57-13.43 30-30 30h-273.36c-16.57 0-30-13.43-30-30z" stroke="#474747" fill-opacity="0"/><path d="M1228.6 656.6v-5.9c0-7.26-5.87-13.14-13.1-13.14-7.25 0-13.13 5.88-13.13 13.13v5.9h6.64v-5.9c0-3.6 2.92-6.5 6.5-6.5 3.56 0 6.47 2.9 6.47 6.5v5.9h6.64z" fill="#876a22"/><path d="M1228.62 656.6h5.42v20.85h-37.4V656.6h5.72v-7.1c0-7.27 5.87-13.15 13.13-13.15 7.24 0 13.12 5.88 13.12 13.15v7.1zm-6.66 0v-7.1c0-3.57-2.88-6.5-6.47-6.5-3.6 0-6.48 2.93-6.48 6.5v7.1h12.94z" fill="#daa835"/><path d="M1196.64 677.45h37.4v.9h-37.4z" fill="#876a22"/><use xlink:href="#s" transform="matrix(1,0,0,1,1166.6393442622953,926.3541666666667) translate(67.8148148148148 12.888888888888888)"/><use xlink:href="#d" transform="matrix(1,0,0,1,1166.6393442622953,926.3541666666667) translate(127.96296296296295 12.888888888888888)"/><use xlink:href="#j" transform="matrix(1,0,0,1,1166.6393442622953,926.3541666666667) translate(157.5432098765432 12.888888888888888)"/><use xlink:href="#x" transform="matrix(1,0,0,1,1166.6393442622953,926.3541666666667) translate(177.2962962962963 12.888888888888888)"/><path d="M1308.28 744.92h75.44c19.78 0 19.78 0 19.78 18.07v68.92c0 18.07 0 18.07-19.78 18.07h-75.44c-19.78 0-19.78 0-19.78-18.08V763c0-18.08 0-18.08 19.78-18.08z" fill="#9d5025"/><path d="M1308.28 740h75.44c19.78 0 19.78 0 19.78 18.07V827c0 18.07 0 18.07-19.78 18.07h-75.44c-19.78 0-19.78 0-19.78-18.07v-68.93c0-18.07 0-18.07 19.78-18.07z" fill="#f58536"/><use xlink:href="#u" transform="matrix(1,0,0,1,1288.5,850) translate(16.025 14.4)"/><use xlink:href="#v" transform="matrix(1,0,0,1,1288.5,850) translate(78.975 14.4)"/><use xlink:href="#w" transform="matrix(1,0,0,1,1288.5,850) translate(14.25 36)"/><path d="M688.33 320.3c0-16.56 13.43-30 30-30H1610c16.57 0 30 13.44 30 30V610c0 16.57-13.43 30-30 30H718.33c-16.57 0-30-13.43-30-30z" fill-opacity="0"/><path d="M703.37 294.4l3.18-1.68 4.7-1.57 4.93-.76 2.15-.1h14.86m14.86 0h29.72m14.86 0h29.72m14.86 0h29.72m14.87 0h29.73m14.86 0h29.7m14.87 0h29.72m14.86 0h29.72m14.86 0h29.72m14.86 0h29.72m14.87 0h29.73m14.86 0h29.7m14.87 0h29.72m14.86 0h29.72m14.86 0h29.72m14.86 0h29.72m14.87 0h29.73m14.86 0h29.7m14.87 0h29.72m14.86 0h29.72m14.86 0H1610l5 .43 4.82 1.23 4.54 2 .6.4m10.95 11l1.7 3.17 1.56 4.7.76 4.93.08 2.15v16.1m0 16.1v32.2m0 16.08v32.2m0 16.08v32.2m0 16.08v32.2m0 16.1v32.17m0 16.1V610l-.42 5-1.22 4.82-2 4.54-.42.6m-10.98 10.95l-3.17 1.7-4.72 1.56-4.93.76-2.15.08h-14.86m-14.86 0h-29.72m-14.87 0h-29.73m-14.86 0h-29.7m-14.87 0h-29.72m-14.86 0h-29.72m-14.86 0h-29.72m-14.86 0h-29.72m-14.87 0h-29.73m-14.86 0h-29.7m-14.87 0h-29.72m-14.86 0h-29.72m-14.86 0h-29.72m-14.86 0h-29.72m-14.87 0h-29.73m-14.86 0h-29.7m-14.87 0H881.8m-14.86 0h-29.72m-14.86 0h-29.72m-14.86 0h-29.72m-14.87 0h-14.87l-5-.42-4.82-1.22-4.53-2-.6-.42m-10.95-10.98l-1.68-3.17-1.57-4.72-.76-4.93-.07-2.15v-16.1m0-16.1v-32.17m0-16.1v-32.2m0-16.08v-32.2m0-16.08v-32.2m0-16.08v-32.2m0-16.1v-16.1l.42-5 1.23-4.8 2-4.55.4-.6" stroke="#f7981f" stroke-width="3" fill="none"/><use xlink:href="#y" transform="matrix(1,0,0,1,688.3333333333333,610) translate(403.325 12.799999999999999)"/><use xlink:href="#z" transform="matrix(1,0,0,1,688.3333333333333,610) translate(492.725 12.799999999999999)"/><use xlink:href="#A" transform="matrix(1,0,0,1,688.3333333333333,610) translate(538.675 12.799999999999999)"/><path d="M665 279.7c0-16.58 13.43-30 30-30h935c16.57 0 30 13.42 30 30v726.65c0 16.57-13.43 30-30 30H695c-16.57 0-30-13.43-30-30z" fill-opacity="0"/><path d="M666 279.7c0 .54-.45 1-1 1s-1-.46-1-1c0-.56.45-1 1-1s1 .44 1 1zm1.1-7.75c0 .55-.43 1-1 1-.54 0-1-.45-1-1 0-.56.46-1 1-1 .57 0 1 .44 1 1zm2.96-7.24c0 .57-.45 1-1 1s-1-.43-1-1c0-.54.45-1 1-1s1 .46 1 1zm4.8-6.17c0 .56-.46 1-1 1-.56 0-1-.44-1-1 0-.55.44-1 1-1 .54 0 1 .45 1 1zm6.18-4.76c0 .56-.45 1-1 1s-1-.44-1-1c0-.55.45-1 1-1s1 .45 1 1zm7.2-3.02c0 .55-.44 1-1 1-.54 0-1-.45-1-1s.46-1 1-1c.56 0 1 .45 1 1zm7.76-1.06c0 .54-.45 1-1 1s-1-.46-1-1c0-.56.45-1 1-1s1 .44 1 1zm8 0c0 .54-.46 1-1 1-.56 0-1-.46-1-1 0-.56.44-1 1-1 .54 0 1 .44 1 1zm7.98 0c0 .54-.44 1-1 1-.55 0-1-.46-1-1 0-.56.45-1 1-1 .56 0 1 .44 1 1zm8 0c0 .54-.45 1-1 1-.56 0-1-.46-1-1 0-.56.44-1 1-1 .55 0 1 .44 1 1zm8 0c0 .54-.46 1-1 1-.57 0-1-.46-1-1 0-.56.43-1 1-1 .54 0 1 .44 1 1zm7.98 0c0 .54-.45 1-1 1-.56 0-1-.46-1-1 0-.56.44-1 1-1 .55 0 1 .44 1 1zm8 0c0 .54-.46 1-1 1-.56 0-1-.46-1-1 0-.56.44-1 1-1 .54 0 1 .44 1 1zm7.98 0c0 .54-.45 1-1 1s-1-.46-1-1c0-.56.45-1 1-1s1 .44 1 1zm8 0c0 .54-.46 1-1 1-.56 0-1-.46-1-1 0-.56.44-1 1-1 .54 0 1 .44 1 1zm7.98 0c0 .54-.44 1-1 1-.55 0-1-.46-1-1 0-.56.45-1 1-1 .56 0 1 .44 1 1zm8 0c0 .54-.45 1-1 1-.56 0-1-.46-1-1 0-.56.44-1 1-1 .55 0 1 .44 1 1zm8 0c0 .54-.46 1-1 1-.57 0-1-.46-1-1 0-.56.43-1 1-1 .54 0 1 .44 1 1zm7.98 0c0 .54-.45 1-1 1s-1-.46-1-1c0-.56.45-1 1-1s1 .44 1 1zm8 0c0 .54-.46 1-1 1-.56 0-1-.46-1-1 0-.56.44-1 1-1 .54 0 1 .44 1 1zm7.98 0c0 .54-.45 1-1 1s-1-.46-1-1c0-.56.45-1 1-1s1 .44 1 1zm8 0c0 .54-.46 1-1 1-.56 0-1-.46-1-1 0-.56.44-1 1-1 .54 0 1 .44 1 1zm7.98 0c0 .54-.44 1-1 1-.55 0-1-.46-1-1 0-.56.45-1 1-1 .56 0 1 .44 1 1zm8 0c0 .54-.45 1-1 1-.56 0-1-.46-1-1 0-.56.44-1 1-1 .55 0 1 .44 1 1zm8 0c0 .54-.46 1-1 1-.57 0-1-.46-1-1 0-.56.43-1 1-1 .54 0 1 .44 1 1zm7.98 0c0 .54-.45 1-1 1s-1-.46-1-1c0-.56.45-1 1-1s1 .44 1 1zm8 0c0 .54-.46 1-1 1-.56 0-1-.46-1-1 0-.56.44-1 1-1 .54 0 1 .44 1 1zm7.98 0c0 .54-.45 1-1 1s-1-.46-1-1c0-.56.45-1 1-1s1 .44 1 1zm8 0c0 .54-.46 1-1 1-.56 0-1-.46-1-1 0-.56.44-1 1-1 .54 0 1 .44 1 1zm7.98 0c0 .54-.44 1-1 1-.55 0-1-.46-1-1 0-.56.45-1 1-1 .56 0 1 .44 1 1zm8 0c0 .54-.45 1-1 1-.56 0-1-.46-1-1 0-.56.44-1 1-1 .55 0 1 .44 1 1zm8 0c0 .54-.46 1-1 1-.57 0-1-.46-1-1 0-.56.43-1 1-1 .54 0 1 .44 1 1zm7.98 0c0 .54-.45 1-1 1s-1-.46-1-1c0-.56.45-1 1-1s1 .44 1 1zm8 0c0 .54-.46 1-1 1-.56 0-1-.46-1-1 0-.56.44-1 1-1 .54 0 1 .44 1 1zm7.98 0c0 .54-.45 1-1 1s-1-.46-1-1c0-.56.45-1 1-1s1 .44 1 1zm8 0c0 .54-.46 1-1 1-.56 0-1-.46-1-1 0-.56.44-1 1-1 .54 0 1 .44 1 1zm7.98 0c0 .54-.44 1-1 1-.55 0-1-.46-1-1 0-.56.45-1 1-1 .56 0 1 .44 1 1zm8 0c0 .54-.45 1-1 1-.56 0-1-.46-1-1 0-.56.44-1 1-1 .55 0 1 .44 1 1zm8 0c0 .54-.46 1-1 1-.57 0-1-.46-1-1 0-.56.43-1 1-1 .54 0 1 .44 1 1zm7.98 0c0 .54-.45 1-1 1s-1-.46-1-1c0-.56.45-1 1-1s1 .44 1 1zm8 0c0 .54-.46 1-1 1-.56 0-1-.46-1-1 0-.56.44-1 1-1 .54 0 1 .44 1 1zm7.98 0c0 .54-.45 1-1 1s-1-.46-1-1c0-.56.45-1 1-1s1 .44 1 1zm8 0c0 .54-.46 1-1 1-.56 0-1-.46-1-1 0-.56.44-1 1-1 .54 0 1 .44 1 1zm7.98 0c0 .54-.44 1-1 1-.55 0-1-.46-1-1 0-.56.45-1 1-1 .56 0 1 .44 1 1zm8 0c0 .54-.45 1-1 1-.56 0-1-.46-1-1 0-.56.44-1 1-1 .55 0 1 .44 1 1zm8 0c0 .54-.46 1-1 1-.57 0-1-.46-1-1 0-.56.43-1 1-1 .54 0 1 .44 1 1zm7.98 0c0 .54-.45 1-1 1s-1-.46-1-1c0-.56.45-1 1-1s1 .44 1 1zm8 0c0 .54-.46 1-1 1-.56 0-1-.46-1-1 0-.56.44-1 1-1 .54 0 1 .44 1 1zm7.98 0c0 .54-.45 1-1 1s-1-.46-1-1c0-.56.45-1 1-1s1 .44 1 1zm8 0c0 .54-.46 1-1 1-.56 0-1-.46-1-1 0-.56.44-1 1-1 .54 0 1 .44 1 1zm7.98 0c0 .54-.44 1-1 1-.55 0-1-.46-1-1 0-.56.45-1 1-1 .56 0 1 .44 1 1zm8 0c0 .54-.45 1-1 1-.56 0-1-.46-1-1 0-.56.44-1 1-1 .55 0 1 .44 1 1zm8 0c0 .54-.46 1-1 1-.57 0-1-.46-1-1 0-.56.43-1 1-1 .54 0 1 .44 1 1zm7.98 0c0 .54-.45 1-1 1s-1-.46-1-1c0-.56.45-1 1-1s1 .44 1 1zm8 0c0 .54-.46 1-1 1-.56 0-1-.46-1-1 0-.56.44-1 1-1 .54 0 1 .44 1 1zm7.98 0c0 .54-.45 1-1 1s-1-.46-1-1c0-.56.45-1 1-1s1 .44 1 1zm8 0c0 .54-.46 1-1 1-.56 0-1-.46-1-1 0-.56.44-1 1-1 .54 0 1 .44 1 1zm7.98 0c0 .54-.44 1-1 1-.55 0-1-.46-1-1 0-.56.45-1 1-1 .56 0 1 .44 1 1zm8 0c0 .54-.45 1-1 1-.56 0-1-.46-1-1 0-.56.44-1 1-1 .55 0 1 .44 1 1zm8 0c0 .54-.46 1-1 1-.57 0-1-.46-1-1 0-.56.43-1 1-1 .54 0 1 .44 1 1zm7.98 0c0 .54-.45 1-1 1s-1-.46-1-1c0-.56.45-1 1-1s1 .44 1 1zm8 0c0 .54-.46 1-1 1-.56 0-1-.46-1-1 0-.56.44-1 1-1 .54 0 1 .44 1 1zm7.98 0c0 .54-.45 1-1 1s-1-.46-1-1c0-.56.45-1 1-1s1 .44 1 1zm8 0c0 .54-.45 1-1 1-.56 0-1-.46-1-1 0-.56.44-1 1-1 .55 0 1 .44 1 1zm7.98 0c0 .54-.44 1-1 1-.55 0-1-.46-1-1 0-.56.45-1 1-1 .56 0 1 .44 1 1zm8 0c0 .54-.45 1-1 1-.56 0-1-.46-1-1 0-.56.44-1 1-1 .55 0 1 .44 1 1zm8 0c0 .54-.46 1-1 1-.57 0-1-.46-1-1 0-.56.43-1 1-1 .54 0 1 .44 1 1zm7.98 0c0 .54-.45 1-1 1s-1-.46-1-1c0-.56.45-1 1-1s1 .44 1 1zm8 0c0 .54-.46 1-1 1-.56 0-1-.46-1-1 0-.56.44-1 1-1 .54 0 1 .44 1 1zm7.98 0c0 .54-.45 1-1 1s-1-.46-1-1c0-.56.45-1 1-1s1 .44 1 1zm8 0c0 .54-.45 1-1 1-.56 0-1-.46-1-1 0-.56.44-1 1-1 .55 0 1 .44 1 1zm7.98 0c0 .54-.44 1-1 1-.55 0-1-.46-1-1 0-.56.45-1 1-1 .56 0 1 .44 1 1zm8 0c0 .54-.45 1-1 1-.56 0-1-.46-1-1 0-.56.44-1 1-1 .55 0 1 .44 1 1zm8 0c0 .54-.46 1-1 1-.56 0-1-.46-1-1 0-.56.44-1 1-1 .54 0 1 .44 1 1zm7.98 0c0 .54-.45 1-1 1s-1-.46-1-1c0-.56.45-1 1-1s1 .44 1 1zm8 0c0 .54-.46 1-1 1-.56 0-1-.46-1-1 0-.56.44-1 1-1 .54 0 1 .44 1 1zm7.98 0c0 .54-.45 1-1 1s-1-.46-1-1c0-.56.45-1 1-1s1 .44 1 1zm8 0c0 .54-.45 1-1 1-.56 0-1-.46-1-1 0-.56.44-1 1-1 .55 0 1 .44 1 1zm7.98 0c0 .54-.44 1-1 1-.55 0-1-.46-1-1 0-.56.45-1 1-1 .56 0 1 .44 1 1zm8 0c0 .54-.45 1-1 1-.56 0-1-.46-1-1 0-.56.44-1 1-1 .55 0 1 .44 1 1zm8 0c0 .54-.46 1-1 1-.56 0-1-.46-1-1 0-.56.44-1 1-1 .54 0 1 .44 1 1zm7.98 0c0 .54-.45 1-1 1s-1-.46-1-1c0-.56.45-1 1-1s1 .44 1 1zm8 0c0 .54-.46 1-1 1-.56 0-1-.46-1-1 0-.56.44-1 1-1 .54 0 1 .44 1 1zm7.98 0c0 .54-.45 1-1 1s-1-.46-1-1c0-.56.45-1 1-1s1 .44 1 1zm8 0c0 .54-.45 1-1 1-.56 0-1-.46-1-1 0-.56.44-1 1-1 .55 0 1 .44 1 1zm7.98 0c0 .54-.44 1-1 1-.55 0-1-.46-1-1 0-.56.45-1 1-1 .56 0 1 .44 1 1zm8 0c0 .54-.45 1-1 1-.56 0-1-.46-1-1 0-.56.44-1 1-1 .55 0 1 .44 1 1zm8 0c0 .54-.46 1-1 1-.56 0-1-.46-1-1 0-.56.44-1 1-1 .54 0 1 .44 1 1zm7.98 0c0 .54-.45 1-1 1s-1-.46-1-1c0-.56.45-1 1-1s1 .44 1 1zm8 0c0 .54-.46 1-1 1-.56 0-1-.46-1-1 0-.56.44-1 1-1 .54 0 1 .44 1 1zm7.98 0c0 .54-.45 1-1 1s-1-.46-1-1c0-.56.45-1 1-1s1 .44 1 1zm8 0c0 .54-.45 1-1 1-.56 0-1-.46-1-1 0-.56.44-1 1-1 .55 0 1 .44 1 1zm7.98 0c0 .54-.44 1-1 1-.55 0-1-.46-1-1 0-.56.45-1 1-1 .56 0 1 .44 1 1zm8 0c0 .54-.45 1-1 1-.56 0-1-.46-1-1 0-.56.44-1 1-1 .55 0 1 .44 1 1zm8 0c0 .54-.46 1-1 1-.56 0-1-.46-1-1 0-.56.44-1 1-1 .54 0 1 .44 1 1zm7.98 0c0 .54-.45 1-1 1s-1-.46-1-1c0-.56.45-1 1-1s1 .44 1 1zm8 0c0 .54-.46 1-1 1-.56 0-1-.46-1-1 0-.56.44-1 1-1 .54 0 1 .44 1 1zm7.98 0c0 .54-.45 1-1 1s-1-.46-1-1c0-.56.45-1 1-1s1 .44 1 1zm8 0c0 .54-.45 1-1 1-.56 0-1-.46-1-1 0-.56.44-1 1-1 .55 0 1 .44 1 1zm8 0c0 .54-.46 1-1 1-.57 0-1-.46-1-1 0-.56.43-1 1-1 .54 0 1 .44 1 1zm7.98 0c0 .54-.45 1-1 1-.56 0-1-.46-1-1 0-.56.44-1 1-1 .55 0 1 .44 1 1zm8 0c0 .54-.46 1-1 1-.56 0-1-.46-1-1 0-.56.44-1 1-1 .54 0 1 .44 1 1zm7.98 0c0 .54-.45 1-1 1s-1-.46-1-1c0-.56.45-1 1-1s1 .44 1 1zm8 0c0 .54-.46 1-1 1-.56 0-1-.46-1-1 0-.56.44-1 1-1 .54 0 1 .44 1 1zm7.98 0c0 .54-.45 1-1 1s-1-.46-1-1c0-.56.45-1 1-1s1 .44 1 1zm8 0c0 .54-.45 1-1 1-.56 0-1-.46-1-1 0-.56.44-1 1-1 .55 0 1 .44 1 1zm8 0c0 .54-.46 1-1 1-.57 0-1-.46-1-1 0-.56.43-1 1-1 .54 0 1 .44 1 1zm7.98 0c0 .54-.45 1-1 1-.56 0-1-.46-1-1 0-.56.44-1 1-1 .55 0 1 .44 1 1zm8 0c0 .54-.46 1-1 1-.56 0-1-.46-1-1 0-.56.44-1 1-1 .54 0 1 .44 1 1zm7.98 0c0 .54-.45 1-1 1s-1-.46-1-1c0-.56.45-1 1-1s1 .44 1 1zm8 0c0 .54-.46 1-1 1-.56 0-1-.46-1-1 0-.56.44-1 1-1 .54 0 1 .44 1 1zm7.98 0c0 .54-.45 1-1 1s-1-.46-1-1c0-.56.45-1 1-1s1 .44 1 1zm8 0c0 .54-.45 1-1 1-.56 0-1-.46-1-1 0-.56.44-1 1-1 .55 0 1 .44 1 1zm8 0c0 .54-.46 1-1 1-.57 0-1-.46-1-1 0-.56.43-1 1-1 .54 0 1 .44 1 1zm7.98 0c0 .54-.45 1-1 1-.56 0-1-.46-1-1 0-.56.44-1 1-1 .55 0 1 .44 1 1zm8 0c0 .54-.46 1-1 1-.56 0-1-.46-1-1 0-.56.44-1 1-1 .54 0 1 .44 1 1zm7.98 0c0 .54-.45 1-1 1s-1-.46-1-1c0-.56.45-1 1-1s1 .44 1 1zm8 0c0 .54-.46 1-1 1-.56 0-1-.46-1-1 0-.56.44-1 1-1 .54 0 1 .44 1 1zm7.98 0c0 .54-.44 1-1 1-.55 0-1-.46-1-1 0-.56.45-1 1-1 .56 0 1 .44 1 1zm8 0c0 .54-.45 1-1 1-.56 0-1-.46-1-1 0-.56.44-1 1-1 .55 0 1 .44 1 1zm8 0c0 .54-.46 1-1 1-.57 0-1-.46-1-1 0-.56.43-1 1-1 .54 0 1 .44 1 1zm7.98 0c0 .54-.45 1-1 1-.56 0-1-.46-1-1 0-.56.44-1 1-1 .55 0 1 .44 1 1zm8 0c0 .54-.46 1-1 1-.56 0-1-.46-1-1 0-.56.44-1 1-1 .54 0 1 .44 1 1zm7.98 0c0 .54-.45 1-1 1s-1-.46-1-1c0-.56.45-1 1-1s1 .44 1 1zm7.74 1.1c0 .55-.45 1-1 1s-1-.45-1-1 .45-1 1-1 1 .45 1 1zm7.23 2.95c0 .55-.44 1-1 1-.55 0-1-.45-1-1 0-.56.45-1 1-1 .56 0 1 .44 1 1zm6.18 4.8c0 .54-.44 1-1 1-.55 0-1-.46-1-1 0-.57.45-1 1-1 .56 0 1 .43 1 1zm4.76 6.18c0 .55-.43 1-1 1-.54 0-1-.45-1-1 0-.56.46-1 1-1 .57 0 1 .44 1 1zm3.04 7.2c0 .56-.45 1-1 1-.56 0-1-.44-1-1 0-.54.44-1 1-1 .55 0 1 .46 1 1zm1.06 7.76c0 .54-.45 1-1 1s-1-.46-1-1c0-.56.45-1 1-1s1 .44 1 1zm0 7.97c0 .56-.45 1-1 1s-1-.44-1-1c0-.55.45-1 1-1s1 .45 1 1zm0 8c0 .54-.45 1-1 1s-1-.46-1-1c0-.56.45-1 1-1s1 .44 1 1zm0 7.97c0 .56-.45 1-1 1s-1-.44-1-1c0-.55.45-1 1-1s1 .45 1 1zm0 8c0 .54-.45 1-1 1s-1-.46-1-1c0-.56.45-1 1-1s1 .44 1 1zm0 7.97c0 .57-.45 1-1 1s-1-.43-1-1c0-.54.45-1 1-1s1 .46 1 1zm0 8c0 .55-.45 1-1 1s-1-.45-1-1 .45-1 1-1 1 .45 1 1zm0 7.98c0 .56-.45 1-1 1s-1-.44-1-1c0-.55.45-1 1-1s1 .45 1 1zm0 8c0 .54-.45 1-1 1s-1-.46-1-1c0-.56.45-1 1-1s1 .44 1 1zm0 7.98c0 .55-.45 1-1 1s-1-.45-1-1c0-.56.45-1 1-1s1 .44 1 1zm0 7.98c0 .55-.45 1-1 1s-1-.45-1-1 .45-1 1-1 1 .45 1 1zm0 8c0 .54-.45 1-1 1s-1-.46-1-1c0-.57.45-1 1-1s1 .43 1 1zm0 7.97c0 .56-.45 1-1 1s-1-.44-1-1c0-.54.45-1 1-1s1 .46 1 1zm0 8c0 .55-.45 1-1 1s-1-.45-1-1c0-.56.45-1 1-1s1 .44 1 1zm0 7.98c0 .55-.45 1-1 1s-1-.45-1-1 .45-1 1-1 1 .45 1 1zm0 8c0 .54-.45 1-1 1s-1-.46-1-1c0-.56.45-1 1-1s1 .44 1 1zm0 7.97c0 .56-.45 1-1 1s-1-.44-1-1c0-.55.45-1 1-1s1 .45 1 1zm0 8c0 .54-.45 1-1 1s-1-.46-1-1c0-.56.45-1 1-1s1 .44 1 1zm0 7.97c0 .56-.45 1-1 1s-1-.44-1-1c0-.55.45-1 1-1s1 .45 1 1zm0 8c0 .54-.45 1-1 1s-1-.46-1-1c0-.56.45-1 1-1s1 .44 1 1zm0 7.97c0 .55-.45 1-1 1s-1-.45-1-1c0-.56.45-1 1-1s1 .44 1 1zm0 7.98c0 .55-.45 1-1 1s-1-.45-1-1 .45-1 1-1 1 .45 1 1zm0 8c0 .54-.45 1-1 1s-1-.46-1-1c0-.57.45-1 1-1s1 .43 1 1zm0 7.97c0 .55-.45 1-1 1s-1-.45-1-1 .45-1 1-1 1 .45 1 1zm0 8c0 .54-.45 1-1 1s-1-.46-1-1c0-.57.45-1 1-1s1 .43 1 1zm0 7.97c0 .55-.45 1-1 1s-1-.45-1-1 .45-1 1-1 1 .45 1 1zm0 8c0 .54-.45 1-1 1s-1-.46-1-1c0-.57.45-1 1-1s1 .43 1 1zm0 7.97c0 .54-.45 1-1 1s-1-.46-1-1c0-.56.45-1 1-1s1 .44 1 1zm0 7.98c0 .55-.45 1-1 1s-1-.45-1-1c0-.56.45-1 1-1s1 .44 1 1zm0 7.98c0 .55-.45 1-1 1s-1-.45-1-1 .45-1 1-1 1 .45 1 1zm0 8c0 .54-.45 1-1 1s-1-.46-1-1c0-.56.45-1 1-1s1 .44 1 1zm0 7.97c0 .56-.45 1-1 1s-1-.44-1-1c0-.55.45-1 1-1s1 .45 1 1zm0 8c0 .54-.45 1-1 1s-1-.46-1-1c0-.56.45-1 1-1s1 .44 1 1zm0 7.97c0 .56-.45 1-1 1s-1-.44-1-1c0-.55.45-1 1-1s1 .45 1 1zm0 8c0 .54-.45 1-1 1s-1-.46-1-1c0-.56.45-1 1-1s1 .44 1 1zm0 7.97c0 .56-.45 1-1 1s-1-.44-1-1c0-.55.45-1 1-1s1 .45 1 1zm0 8c0 .54-.45 1-1 1s-1-.46-1-1c0-.56.45-1 1-1s1 .44 1 1zm0 7.98c0 .55-.45 1-1 1s-1-.45-1-1c0-.56.45-1 1-1s1 .44 1 1zm0 7.98c0 .55-.45 1-1 1s-1-.45-1-1 .45-1 1-1 1 .45 1 1zm0 8c0 .54-.45 1-1 1s-1-.46-1-1c0-.57.45-1 1-1s1 .43 1 1zm0 7.97c0 .55-.45 1-1 1s-1-.45-1-1 .45-1 1-1 1 .45 1 1zm0 8c0 .54-.45 1-1 1s-1-.46-1-1c0-.57.45-1 1-1s1 .43 1 1zm0 7.97c0 .55-.45 1-1 1s-1-.45-1-1 .45-1 1-1 1 .45 1 1zm0 8c0 .54-.45 1-1 1s-1-.46-1-1c0-.56.45-1 1-1s1 .44 1 1zm0 7.97c0 .56-.45 1-1 1s-1-.44-1-1c0-.55.45-1 1-1s1 .45 1 1zm0 8c0 .54-.45 1-1 1s-1-.46-1-1c0-.56.45-1 1-1s1 .44 1 1zm0 7.97c0 .57-.45 1-1 1s-1-.43-1-1c0-.54.45-1 1-1s1 .46 1 1zm0 8c0 .55-.45 1-1 1s-1-.45-1-1 .45-1 1-1 1 .45 1 1zm0 7.98c0 .56-.45 1-1 1s-1-.44-1-1c0-.55.45-1 1-1s1 .45 1 1zm0 8c0 .54-.45 1-1 1s-1-.46-1-1c0-.56.45-1 1-1s1 .44 1 1zm0 7.97c0 .56-.45 1-1 1s-1-.44-1-1c0-.55.45-1 1-1s1 .45 1 1zm0 8c0 .54-.45 1-1 1s-1-.46-1-1c0-.56.45-1 1-1s1 .44 1 1zm0 7.98c0 .55-.45 1-1 1s-1-.45-1-1c0-.56.45-1 1-1s1 .44 1 1zm0 7.98c0 .56-.45 1-1 1s-1-.44-1-1c0-.54.45-1 1-1s1 .46 1 1zm0 8c0 .55-.45 1-1 1s-1-.45-1-1c0-.56.45-1 1-1s1 .44 1 1zm0 7.98c0 .55-.45 1-1 1s-1-.45-1-1 .45-1 1-1 1 .45 1 1zm0 8c0 .54-.45 1-1 1s-1-.46-1-1c0-.57.45-1 1-1s1 .43 1 1zm0 7.97c0 .55-.45 1-1 1s-1-.45-1-1 .45-1 1-1 1 .45 1 1zm0 8c0 .54-.45 1-1 1s-1-.46-1-1c0-.56.45-1 1-1s1 .44 1 1zm0 7.97c0 .56-.45 1-1 1s-1-.44-1-1c0-.55.45-1 1-1s1 .45 1 1zm0 8c0 .54-.45 1-1 1s-1-.46-1-1c0-.56.45-1 1-1s1 .44 1 1zm0 7.97c0 .55-.45 1-1 1s-1-.45-1-1c0-.56.45-1 1-1s1 .44 1 1zm0 7.98c0 .55-.45 1-1 1s-1-.45-1-1 .45-1 1-1 1 .45 1 1zm0 7.98c0 .56-.45 1-1 1s-1-.44-1-1c0-.55.45-1 1-1s1 .45 1 1zm0 8c0 .54-.45 1-1 1s-1-.46-1-1c0-.56.45-1 1-1s1 .44 1 1zm0 7.98c0 .55-.45 1-1 1s-1-.45-1-1c0-.56.45-1 1-1s1 .44 1 1zm0 7.98c0 .55-.45 1-1 1s-1-.45-1-1 .45-1 1-1 1 .45 1 1zm0 8c0 .54-.45 1-1 1s-1-.46-1-1c0-.57.45-1 1-1s1 .43 1 1zm0 7.97c0 .54-.45 1-1 1s-1-.46-1-1c0-.56.45-1 1-1s1 .44 1 1zm0 7.98c0 .55-.45 1-1 1s-1-.45-1-1c0-.56.45-1 1-1s1 .44 1 1zm0 7.98c0 .55-.45 1-1 1s-1-.45-1-1 .45-1 1-1 1 .45 1 1zm0 8c0 .54-.45 1-1 1s-1-.46-1-1c0-.57.45-1 1-1s1 .43 1 1zm0 7.97c0 .55-.45 1-1 1s-1-.45-1-1 .45-1 1-1 1 .45 1 1zm0 8c0 .54-.45 1-1 1s-1-.46-1-1c0-.56.45-1 1-1s1 .44 1 1zm0 7.97c0 .56-.45 1-1 1s-1-.44-1-1c0-.55.45-1 1-1s1 .45 1 1zm0 8c0 .54-.45 1-1 1s-1-.46-1-1c0-.56.45-1 1-1s1 .44 1 1zm0 7.97c0 .56-.45 1-1 1s-1-.44-1-1c0-.55.45-1 1-1s1 .45 1 1zm0 8c0 .54-.45 1-1 1s-1-.46-1-1c0-.56.45-1 1-1s1 .44 1 1zm0 7.97c0 .56-.45 1-1 1s-1-.44-1-1c0-.55.45-1 1-1s1 .45 1 1zm0 8c0 .54-.45 1-1 1s-1-.46-1-1c0-.56.45-1 1-1s1 .44 1 1zm0 7.98c0 .55-.45 1-1 1s-1-.45-1-1c0-.56.45-1 1-1s1 .44 1 1zm0 7.98c0 .55-.45 1-1 1s-1-.45-1-1 .45-1 1-1 1 .45 1 1zm0 8c0 .54-.45 1-1 1s-1-.46-1-1c0-.57.45-1 1-1s1 .43 1 1zm0 7.97c0 .55-.45 1-1 1s-1-.45-1-1 .45-1 1-1 1 .45 1 1zm0 8c0 .54-.45 1-1 1s-1-.46-1-1c0-.57.45-1 1-1s1 .43 1 1zm0 7.97c0 .55-.45 1-1 1s-1-.45-1-1 .45-1 1-1 1 .45 1 1zm0 8c0 .54-.45 1-1 1s-1-.46-1-1c0-.56.45-1 1-1s1 .44 1 1zm0 7.97c0 .57-.45 1-1 1s-1-.43-1-1c0-.54.45-1 1-1s1 .46 1 1zm0 8c0 .55-.45 1-1 1s-1-.45-1-1 .45-1 1-1 1 .45 1 1zm0 7.98c0 .56-.45 1-1 1s-1-.44-1-1c0-.55.45-1 1-1s1 .45 1 1zm0 8c0 .54-.45 1-1 1s-1-.46-1-1c0-.56.45-1 1-1s1 .44 1 1zm0 7.97c0 .56-.45 1-1 1s-1-.44-1-1c0-.55.45-1 1-1s1 .45 1 1zm-1.1 7.75c0 .55-.46 1-1 1-.57 0-1-.45-1-1 0-.56.43-1 1-1 .54 0 1 .44 1 1zm-2.96 7.23c0 .55-.45 1-1 1s-1-.45-1-1 .45-1 1-1 1 .45 1 1zm-4.8 6.18c0 .56-.44 1-1 1-.54 0-1-.44-1-1 0-.54.46-1 1-1 .56 0 1 .46 1 1zm-6.18 4.77c0 .55-.45 1-1 1s-1-.45-1-1c0-.56.45-1 1-1s1 .44 1 1zm-7.2 3.02c0 .54-.46 1-1 1-.56 0-1-.46-1-1 0-.56.44-1 1-1 .54 0 1 .44 1 1zm-7.76 1.05c0 .56-.45 1-1 1s-1-.44-1-1c0-.55.45-1 1-1s1 .45 1 1zm-8 0c0 .56-.44 1-1 1-.54 0-1-.44-1-1 0-.55.46-1 1-1 .56 0 1 .45 1 1zm-7.98 0c0 .56-.45 1-1 1-.56 0-1-.44-1-1 0-.55.44-1 1-1 .55 0 1 .45 1 1zm-8 0c0 .56-.44 1-1 1-.55 0-1-.44-1-1 0-.55.45-1 1-1 .56 0 1 .45 1 1zm-8 0c0 .56-.43 1-1 1-.54 0-1-.44-1-1 0-.55.46-1 1-1 .57 0 1 .45 1 1zm-7.98 0c0 .56-.44 1-1 1-.55 0-1-.44-1-1 0-.55.45-1 1-1 .56 0 1 .45 1 1zm-8 0c0 .56-.44 1-1 1-.54 0-1-.44-1-1 0-.55.46-1 1-1 .56 0 1 .45 1 1zm-7.98 0c0 .56-.45 1-1 1s-1-.44-1-1c0-.55.45-1 1-1s1 .45 1 1zm-8 0c0 .56-.44 1-1 1-.54 0-1-.44-1-1 0-.55.46-1 1-1 .56 0 1 .45 1 1zm-7.98 0c0 .56-.45 1-1 1-.56 0-1-.44-1-1 0-.55.44-1 1-1 .55 0 1 .45 1 1zm-8 0c0 .56-.44 1-1 1-.55 0-1-.44-1-1 0-.55.45-1 1-1 .56 0 1 .45 1 1zm-8 0c0 .56-.43 1-1 1-.54 0-1-.44-1-1 0-.55.46-1 1-1 .57 0 1 .45 1 1zm-7.98 0c0 .56-.45 1-1 1s-1-.44-1-1c0-.55.45-1 1-1s1 .45 1 1zm-8 0c0 .56-.44 1-1 1-.54 0-1-.44-1-1 0-.55.46-1 1-1 .56 0 1 .45 1 1zm-7.98 0c0 .56-.45 1-1 1s-1-.44-1-1c0-.55.45-1 1-1s1 .45 1 1zm-8 0c0 .56-.44 1-1 1-.54 0-1-.44-1-1 0-.55.46-1 1-1 .56 0 1 .45 1 1zm-7.98 0c0 .56-.45 1-1 1-.56 0-1-.44-1-1 0-.55.44-1 1-1 .55 0 1 .45 1 1zm-8 0c0 .56-.44 1-1 1-.55 0-1-.44-1-1 0-.55.45-1 1-1 .56 0 1 .45 1 1zm-8 0c0 .56-.43 1-1 1-.54 0-1-.44-1-1 0-.55.46-1 1-1 .57 0 1 .45 1 1zm-7.98 0c0 .56-.45 1-1 1s-1-.44-1-1c0-.55.45-1 1-1s1 .45 1 1zm-8 0c0 .56-.44 1-1 1-.54 0-1-.44-1-1 0-.55.46-1 1-1 .56 0 1 .45 1 1zm-7.98 0c0 .56-.45 1-1 1s-1-.44-1-1c0-.55.45-1 1-1s1 .45 1 1zm-8 0c0 .56-.44 1-1 1-.54 0-1-.44-1-1 0-.55.46-1 1-1 .56 0 1 .45 1 1zm-7.98 0c0 .56-.45 1-1 1-.56 0-1-.44-1-1 0-.55.44-1 1-1 .55 0 1 .45 1 1zm-8 0c0 .56-.44 1-1 1-.55 0-1-.44-1-1 0-.55.45-1 1-1 .56 0 1 .45 1 1zm-8 0c0 .56-.43 1-1 1-.54 0-1-.44-1-1 0-.55.46-1 1-1 .57 0 1 .45 1 1zm-7.98 0c0 .56-.45 1-1 1s-1-.44-1-1c0-.55.45-1 1-1s1 .45 1 1zm-8 0c0 .56-.44 1-1 1-.54 0-1-.44-1-1 0-.55.46-1 1-1 .56 0 1 .45 1 1zm-7.98 0c0 .56-.45 1-1 1s-1-.44-1-1c0-.55.45-1 1-1s1 .45 1 1zm-8 0c0 .56-.44 1-1 1-.54 0-1-.44-1-1 0-.55.46-1 1-1 .56 0 1 .45 1 1zm-7.98 0c0 .56-.45 1-1 1-.56 0-1-.44-1-1 0-.55.44-1 1-1 .55 0 1 .45 1 1zm-8 0c0 .56-.44 1-1 1-.55 0-1-.44-1-1 0-.55.45-1 1-1 .56 0 1 .45 1 1zm-8 0c0 .56-.43 1-1 1-.54 0-1-.44-1-1 0-.55.46-1 1-1 .57 0 1 .45 1 1zm-7.98 0c0 .56-.45 1-1 1s-1-.44-1-1c0-.55.45-1 1-1s1 .45 1 1zm-8 0c0 .56-.44 1-1 1-.54 0-1-.44-1-1 0-.55.46-1 1-1 .56 0 1 .45 1 1zm-7.98 0c0 .56-.45 1-1 1s-1-.44-1-1c0-.55.45-1 1-1s1 .45 1 1zm-8 0c0 .56-.44 1-1 1-.54 0-1-.44-1-1 0-.55.46-1 1-1 .56 0 1 .45 1 1zm-7.98 0c0 .56-.45 1-1 1-.56 0-1-.44-1-1 0-.55.44-1 1-1 .55 0 1 .45 1 1zm-8 0c0 .56-.44 1-1 1-.55 0-1-.44-1-1 0-.55.45-1 1-1 .56 0 1 .45 1 1zm-8 0c0 .56-.43 1-1 1-.54 0-1-.44-1-1 0-.55.46-1 1-1 .57 0 1 .45 1 1zm-7.98 0c0 .56-.45 1-1 1s-1-.44-1-1c0-.55.45-1 1-1s1 .45 1 1zm-8 0c0 .56-.44 1-1 1-.54 0-1-.44-1-1 0-.55.46-1 1-1 .56 0 1 .45 1 1zm-7.98 0c0 .56-.45 1-1 1s-1-.44-1-1c0-.55.45-1 1-1s1 .45 1 1zm-8 0c0 .56-.44 1-1 1-.54 0-1-.44-1-1 0-.55.46-1 1-1 .56 0 1 .45 1 1zm-7.98 0c0 .56-.45 1-1 1-.56 0-1-.44-1-1 0-.55.44-1 1-1 .55 0 1 .45 1 1zm-8 0c0 .56-.44 1-1 1-.55 0-1-.44-1-1 0-.55.45-1 1-1 .56 0 1 .45 1 1zm-8 0c0 .56-.43 1-1 1-.54 0-1-.44-1-1 0-.55.46-1 1-1 .57 0 1 .45 1 1zm-7.98 0c0 .56-.45 1-1 1s-1-.44-1-1c0-.55.45-1 1-1s1 .45 1 1zm-8 0c0 .56-.44 1-1 1-.54 0-1-.44-1-1 0-.55.46-1 1-1 .56 0 1 .45 1 1zm-7.98 0c0 .56-.45 1-1 1s-1-.44-1-1c0-.55.45-1 1-1s1 .45 1 1zm-8 0c0 .56-.44 1-1 1-.54 0-1-.44-1-1 0-.55.46-1 1-1 .56 0 1 .45 1 1zm-7.98 0c0 .56-.45 1-1 1-.56 0-1-.44-1-1 0-.55.44-1 1-1 .55 0 1 .45 1 1zm-8 0c0 .56-.44 1-1 1-.55 0-1-.44-1-1 0-.55.45-1 1-1 .56 0 1 .45 1 1zm-8 0c0 .56-.43 1-1 1-.54 0-1-.44-1-1 0-.55.46-1 1-1 .57 0 1 .45 1 1zm-7.98 0c0 .56-.45 1-1 1s-1-.44-1-1c0-.55.45-1 1-1s1 .45 1 1zm-8 0c0 .56-.44 1-1 1-.54 0-1-.44-1-1 0-.55.46-1 1-1 .56 0 1 .45 1 1zm-7.98 0c0 .56-.45 1-1 1s-1-.44-1-1c0-.55.45-1 1-1s1 .45 1 1zm-8 0c0 .56-.44 1-1 1-.55 0-1-.44-1-1 0-.55.45-1 1-1 .56 0 1 .45 1 1zm-7.98 0c0 .56-.45 1-1 1-.56 0-1-.44-1-1 0-.55.44-1 1-1 .55 0 1 .45 1 1zm-8 0c0 .56-.44 1-1 1-.55 0-1-.44-1-1 0-.55.45-1 1-1 .56 0 1 .45 1 1zm-8 0c0 .56-.43 1-1 1-.54 0-1-.44-1-1 0-.55.46-1 1-1 .57 0 1 .45 1 1zm-7.98 0c0 .56-.45 1-1 1s-1-.44-1-1c0-.55.45-1 1-1s1 .45 1 1zm-8 0c0 .56-.44 1-1 1-.54 0-1-.44-1-1 0-.55.46-1 1-1 .56 0 1 .45 1 1zm-7.98 0c0 .56-.45 1-1 1s-1-.44-1-1c0-.55.45-1 1-1s1 .45 1 1zm-8 0c0 .56-.44 1-1 1-.55 0-1-.44-1-1 0-.55.45-1 1-1 .56 0 1 .45 1 1zm-7.98 0c0 .56-.45 1-1 1-.56 0-1-.44-1-1 0-.55.44-1 1-1 .55 0 1 .45 1 1zm-8 0c0 .56-.44 1-1 1-.55 0-1-.44-1-1 0-.55.45-1 1-1 .56 0 1 .45 1 1zm-8 0c0 .56-.44 1-1 1-.54 0-1-.44-1-1 0-.55.46-1 1-1 .56 0 1 .45 1 1zm-7.98 0c0 .56-.45 1-1 1s-1-.44-1-1c0-.55.45-1 1-1s1 .45 1 1zm-8 0c0 .56-.44 1-1 1-.54 0-1-.44-1-1 0-.55.46-1 1-1 .56 0 1 .45 1 1zm-7.98 0c0 .56-.45 1-1 1s-1-.44-1-1c0-.55.45-1 1-1s1 .45 1 1zm-8 0c0 .56-.44 1-1 1-.55 0-1-.44-1-1 0-.55.45-1 1-1 .56 0 1 .45 1 1zm-7.98 0c0 .56-.45 1-1 1-.56 0-1-.44-1-1 0-.55.44-1 1-1 .55 0 1 .45 1 1zm-8 0c0 .56-.44 1-1 1-.55 0-1-.44-1-1 0-.55.45-1 1-1 .56 0 1 .45 1 1zm-8 0c0 .56-.44 1-1 1-.54 0-1-.44-1-1 0-.55.46-1 1-1 .56 0 1 .45 1 1zm-7.98 0c0 .56-.45 1-1 1s-1-.44-1-1c0-.55.45-1 1-1s1 .45 1 1zm-8 0c0 .56-.44 1-1 1-.54 0-1-.44-1-1 0-.55.46-1 1-1 .56 0 1 .45 1 1zm-7.98 0c0 .56-.45 1-1 1s-1-.44-1-1c0-.55.45-1 1-1s1 .45 1 1zm-8 0c0 .56-.44 1-1 1-.55 0-1-.44-1-1 0-.55.45-1 1-1 .56 0 1 .45 1 1zm-7.98 0c0 .56-.45 1-1 1-.56 0-1-.44-1-1 0-.55.44-1 1-1 .55 0 1 .45 1 1zm-8 0c0 .56-.44 1-1 1-.55 0-1-.44-1-1 0-.55.45-1 1-1 .56 0 1 .45 1 1zm-8 0c0 .56-.44 1-1 1-.54 0-1-.44-1-1 0-.55.46-1 1-1 .56 0 1 .45 1 1zm-7.98 0c0 .56-.45 1-1 1s-1-.44-1-1c0-.55.45-1 1-1s1 .45 1 1zm-8 0c0 .56-.44 1-1 1-.54 0-1-.44-1-1 0-.55.46-1 1-1 .56 0 1 .45 1 1zm-7.98 0c0 .56-.45 1-1 1s-1-.44-1-1c0-.55.45-1 1-1s1 .45 1 1zm-8 0c0 .56-.44 1-1 1-.55 0-1-.44-1-1 0-.55.45-1 1-1 .56 0 1 .45 1 1zm-7.98 0c0 .56-.45 1-1 1-.56 0-1-.44-1-1 0-.55.44-1 1-1 .55 0 1 .45 1 1zm-8 0c0 .56-.44 1-1 1-.55 0-1-.44-1-1 0-.55.45-1 1-1 .56 0 1 .45 1 1zm-8 0c0 .56-.44 1-1 1-.54 0-1-.44-1-1 0-.55.46-1 1-1 .56 0 1 .45 1 1zm-7.98 0c0 .56-.45 1-1 1s-1-.44-1-1c0-.55.45-1 1-1s1 .45 1 1zm-8 0c0 .56-.44 1-1 1-.54 0-1-.44-1-1 0-.55.46-1 1-1 .56 0 1 .45 1 1zm-7.98 0c0 .56-.45 1-1 1s-1-.44-1-1c0-.55.45-1 1-1s1 .45 1 1zm-8 0c0 .56-.44 1-1 1-.55 0-1-.44-1-1 0-.55.45-1 1-1 .56 0 1 .45 1 1zm-8 0c0 .56-.43 1-1 1-.54 0-1-.44-1-1 0-.55.46-1 1-1 .57 0 1 .45 1 1zm-7.98 0c0 .56-.44 1-1 1-.55 0-1-.44-1-1 0-.55.45-1 1-1 .56 0 1 .45 1 1zm-8 0c0 .56-.44 1-1 1-.54 0-1-.44-1-1 0-.55.46-1 1-1 .56 0 1 .45 1 1zm-7.98 0c0 .56-.45 1-1 1s-1-.44-1-1c0-.55.45-1 1-1s1 .45 1 1zm-8 0c0 .56-.44 1-1 1-.54 0-1-.44-1-1 0-.55.46-1 1-1 .56 0 1 .45 1 1zm-7.98 0c0 .56-.45 1-1 1s-1-.44-1-1c0-.55.45-1 1-1s1 .45 1 1zm-8 0c0 .56-.44 1-1 1-.55 0-1-.44-1-1 0-.55.45-1 1-1 .56 0 1 .45 1 1zm-8 0c0 .56-.43 1-1 1-.54 0-1-.44-1-1 0-.55.46-1 1-1 .57 0 1 .45 1 1zm-7.98 0c0 .56-.44 1-1 1-.55 0-1-.44-1-1 0-.55.45-1 1-1 .56 0 1 .45 1 1zm-8 0c0 .56-.44 1-1 1-.54 0-1-.44-1-1 0-.55.46-1 1-1 .56 0 1 .45 1 1zm-7.98 0c0 .56-.45 1-1 1s-1-.44-1-1c0-.55.45-1 1-1s1 .45 1 1zm-8 0c0 .56-.44 1-1 1-.54 0-1-.44-1-1 0-.55.46-1 1-1 .56 0 1 .45 1 1zm-7.98 0c0 .56-.45 1-1 1s-1-.44-1-1c0-.55.45-1 1-1s1 .45 1 1zm-8 0c0 .56-.44 1-1 1-.55 0-1-.44-1-1 0-.55.45-1 1-1 .56 0 1 .45 1 1zm-8 0c0 .56-.43 1-1 1-.54 0-1-.44-1-1 0-.55.46-1 1-1 .57 0 1 .45 1 1zm-7.98 0c0 .56-.44 1-1 1-.55 0-1-.44-1-1 0-.55.45-1 1-1 .56 0 1 .45 1 1zm-8 0c0 .56-.44 1-1 1-.54 0-1-.44-1-1 0-.55.46-1 1-1 .56 0 1 .45 1 1zm-7.98 0c0 .56-.45 1-1 1s-1-.44-1-1c0-.55.45-1 1-1s1 .45 1 1zm-8 0c0 .56-.44 1-1 1-.54 0-1-.44-1-1 0-.55.46-1 1-1 .56 0 1 .45 1 1zm-7.98 0c0 .56-.45 1-1 1-.56 0-1-.44-1-1 0-.55.44-1 1-1 .55 0 1 .45 1 1zm-8 0c0 .56-.44 1-1 1-.55 0-1-.44-1-1 0-.55.45-1 1-1 .56 0 1 .45 1 1zm-8 0c0 .56-.43 1-1 1-.54 0-1-.44-1-1 0-.55.46-1 1-1 .57 0 1 .45 1 1zm-7.98 0c0 .56-.44 1-1 1-.55 0-1-.44-1-1 0-.55.45-1 1-1 .56 0 1 .45 1 1zm-8 0c0 .56-.44 1-1 1-.54 0-1-.44-1-1 0-.55.46-1 1-1 .56 0 1 .45 1 1zm-7.98 0c0 .56-.45 1-1 1s-1-.44-1-1c0-.55.45-1 1-1s1 .45 1 1zm-7.74-1.1c0 .54-.45 1-1 1s-1-.46-1-1c0-.56.45-1 1-1s1 .44 1 1zm-7.23-2.95c0 .55-.45 1-1 1-.56 0-1-.45-1-1 0-.56.44-1 1-1 .55 0 1 .44 1 1zm-6.18-4.8c0 .56-.45 1-1 1-.56 0-1-.44-1-1 0-.55.44-1 1-1 .55 0 1 .45 1 1zm-4.76-6.2c0 .57-.46 1-1 1-.57 0-1-.43-1-1 0-.54.43-1 1-1 .54 0 1 .46 1 1zm-3.04-7.2c0 .56-.44 1-1 1-.55 0-1-.44-1-1 0-.55.45-1 1-1 .56 0 1 .45 1 1zm-1.06-7.75c0 .56-.45 1-1 1s-1-.44-1-1c0-.55.45-1 1-1s1 .45 1 1zm0-7.98c0 .55-.45 1-1 1s-1-.45-1-1 .45-1 1-1 1 .45 1 1zm0-8c0 .57-.45 1-1 1s-1-.43-1-1c0-.54.45-1 1-1s1 .46 1 1zm0-7.97c0 .55-.45 1-1 1s-1-.45-1-1 .45-1 1-1 1 .45 1 1zm0-8c0 .57-.45 1-1 1s-1-.43-1-1c0-.54.45-1 1-1s1 .46 1 1zm0-7.97c0 .55-.45 1-1 1s-1-.45-1-1 .45-1 1-1 1 .45 1 1zm0-8c0 .56-.45 1-1 1s-1-.44-1-1c0-.54.45-1 1-1s1 .46 1 1zm0-7.97c0 .55-.45 1-1 1s-1-.45-1-1c0-.56.45-1 1-1s1 .44 1 1zm0-8c0 .56-.45 1-1 1s-1-.44-1-1c0-.54.45-1 1-1s1 .46 1 1zm0-7.97c0 .54-.45 1-1 1s-1-.46-1-1c0-.57.45-1 1-1s1 .43 1 1zm0-8c0 .55-.45 1-1 1s-1-.45-1-1 .45-1 1-1 1 .45 1 1zm0-7.98c0 .55-.45 1-1 1s-1-.45-1-1c0-.56.45-1 1-1s1 .44 1 1zm0-8c0 .56-.45 1-1 1s-1-.44-1-1c0-.54.45-1 1-1s1 .46 1 1zm0-7.98c0 .56-.45 1-1 1s-1-.44-1-1c0-.55.45-1 1-1s1 .45 1 1zm0-7.98c0 .55-.45 1-1 1s-1-.45-1-1 .45-1 1-1 1 .45 1 1zm0-8c0 .57-.45 1-1 1s-1-.43-1-1c0-.54.45-1 1-1s1 .46 1 1zm0-7.97c0 .54-.45 1-1 1s-1-.46-1-1c0-.56.45-1 1-1s1 .44 1 1zm0-8c0 .56-.45 1-1 1s-1-.44-1-1c0-.55.45-1 1-1s1 .45 1 1zm0-7.98c0 .55-.45 1-1 1s-1-.45-1-1 .45-1 1-1 1 .45 1 1zm0-8c0 .56-.45 1-1 1s-1-.44-1-1c0-.54.45-1 1-1s1 .46 1 1zm0-7.97c0 .55-.45 1-1 1s-1-.45-1-1c0-.56.45-1 1-1s1 .44 1 1zm0-8c0 .56-.45 1-1 1s-1-.44-1-1c0-.54.45-1 1-1s1 .46 1 1zm0-7.97c0 .55-.45 1-1 1s-1-.45-1-1c0-.56.45-1 1-1s1 .44 1 1zm0-8c0 .56-.45 1-1 1s-1-.44-1-1c0-.54.45-1 1-1s1 .46 1 1zm0-7.97c0 .56-.45 1-1 1s-1-.44-1-1c0-.55.45-1 1-1s1 .45 1 1zm0-7.98c0 .55-.45 1-1 1s-1-.45-1-1 .45-1 1-1 1 .45 1 1zm0-7.98c0 .55-.45 1-1 1s-1-.45-1-1c0-.56.45-1 1-1s1 .44 1 1zm0-8c0 .56-.45 1-1 1s-1-.44-1-1c0-.54.45-1 1-1s1 .46 1 1zm0-7.98c0 .56-.45 1-1 1s-1-.44-1-1c0-.55.45-1 1-1s1 .45 1 1zm0-7.98c0 .55-.45 1-1 1s-1-.45-1-1 .45-1 1-1 1 .45 1 1zm0-8c0 .57-.45 1-1 1s-1-.43-1-1c0-.54.45-1 1-1s1 .46 1 1zm0-7.97c0 .56-.45 1-1 1s-1-.44-1-1c0-.54.45-1 1-1s1 .46 1 1zm0-7.98c0 .56-.45 1-1 1s-1-.44-1-1c0-.55.45-1 1-1s1 .45 1 1zm0-7.98c0 .55-.45 1-1 1s-1-.45-1-1 .45-1 1-1 1 .45 1 1zm0-8c0 .56-.45 1-1 1s-1-.44-1-1c0-.54.45-1 1-1s1 .46 1 1zm0-7.97c0 .55-.45 1-1 1s-1-.45-1-1c0-.56.45-1 1-1s1 .44 1 1zm0-8c0 .56-.45 1-1 1s-1-.44-1-1c0-.54.45-1 1-1s1 .46 1 1zm0-7.97c0 .55-.45 1-1 1s-1-.45-1-1c0-.56.45-1 1-1s1 .44 1 1zm0-8c0 .56-.45 1-1 1s-1-.44-1-1c0-.54.45-1 1-1s1 .46 1 1zm0-7.97c0 .55-.45 1-1 1s-1-.45-1-1c0-.56.45-1 1-1s1 .44 1 1zm0-8c0 .56-.45 1-1 1s-1-.44-1-1c0-.54.45-1 1-1s1 .46 1 1zm0-7.98c0 .56-.45 1-1 1s-1-.44-1-1c0-.55.45-1 1-1s1 .45 1 1zm0-7.98c0 .55-.45 1-1 1s-1-.45-1-1 .45-1 1-1 1 .45 1 1zm0-8c0 .57-.45 1-1 1s-1-.43-1-1c0-.54.45-1 1-1s1 .46 1 1zm0-7.97c0 .55-.45 1-1 1s-1-.45-1-1 .45-1 1-1 1 .45 1 1zm0-8c0 .57-.45 1-1 1s-1-.43-1-1c0-.54.45-1 1-1s1 .46 1 1zm0-7.97c0 .55-.45 1-1 1s-1-.45-1-1 .45-1 1-1 1 .45 1 1zm0-8c0 .57-.45 1-1 1s-1-.43-1-1c0-.54.45-1 1-1s1 .46 1 1zm0-7.97c0 .55-.45 1-1 1s-1-.45-1-1 .45-1 1-1 1 .45 1 1zm0-8c0 .56-.45 1-1 1s-1-.44-1-1c0-.54.45-1 1-1s1 .46 1 1zm0-7.97c0 .54-.45 1-1 1s-1-.46-1-1c0-.57.45-1 1-1s1 .43 1 1zm0-8c0 .55-.45 1-1 1s-1-.45-1-1 .45-1 1-1 1 .45 1 1zm0-7.98c0 .55-.45 1-1 1s-1-.45-1-1c0-.56.45-1 1-1s1 .44 1 1zm0-8c0 .56-.45 1-1 1s-1-.44-1-1c0-.54.45-1 1-1s1 .46 1 1zm0-7.97c0 .55-.45 1-1 1s-1-.45-1-1c0-.56.45-1 1-1s1 .44 1 1zm0-8c0 .56-.45 1-1 1s-1-.44-1-1c0-.54.45-1 1-1s1 .46 1 1zm0-7.98c0 .56-.45 1-1 1s-1-.44-1-1c0-.55.45-1 1-1s1 .45 1 1zm0-7.98c0 .54-.45 1-1 1s-1-.46-1-1c0-.56.45-1 1-1s1 .44 1 1zm0-8c0 .56-.45 1-1 1s-1-.44-1-1c0-.55.45-1 1-1s1 .45 1 1zm0-7.98c0 .55-.45 1-1 1s-1-.45-1-1 .45-1 1-1 1 .45 1 1zm0-8c0 .57-.45 1-1 1s-1-.43-1-1c0-.54.45-1 1-1s1 .46 1 1zm0-7.97c0 .55-.45 1-1 1s-1-.45-1-1 .45-1 1-1 1 .45 1 1zm0-8c0 .56-.45 1-1 1s-1-.44-1-1c0-.54.45-1 1-1s1 .46 1 1zm0-7.97c0 .55-.45 1-1 1s-1-.45-1-1c0-.56.45-1 1-1s1 .44 1 1zm0-8c0 .56-.45 1-1 1s-1-.44-1-1c0-.54.45-1 1-1s1 .46 1 1zm0-7.97c0 .56-.45 1-1 1s-1-.44-1-1c0-.55.45-1 1-1s1 .45 1 1zm0-7.98c0 .55-.45 1-1 1s-1-.45-1-1 .45-1 1-1 1 .45 1 1zm0-7.98c0 .55-.45 1-1 1s-1-.45-1-1c0-.56.45-1 1-1s1 .44 1 1zm0-8c0 .56-.45 1-1 1s-1-.44-1-1c0-.54.45-1 1-1s1 .46 1 1zm0-7.97c0 .55-.45 1-1 1s-1-.45-1-1c0-.56.45-1 1-1s1 .44 1 1zm0-8c0 .56-.45 1-1 1s-1-.44-1-1c0-.54.45-1 1-1s1 .46 1 1zm0-7.98c0 .55-.45 1-1 1s-1-.45-1-1c0-.56.45-1 1-1s1 .44 1 1zm0-8c0 .56-.45 1-1 1s-1-.44-1-1c0-.54.45-1 1-1s1 .46 1 1zm0-7.98c0 .56-.45 1-1 1s-1-.44-1-1c0-.55.45-1 1-1s1 .45 1 1zm0-7.98c0 .55-.45 1-1 1s-1-.45-1-1 .45-1 1-1 1 .45 1 1zm0-8c0 .57-.45 1-1 1s-1-.43-1-1c0-.54.45-1 1-1s1 .46 1 1zm0-7.97c0 .55-.45 1-1 1s-1-.45-1-1 .45-1 1-1 1 .45 1 1zm0-8c0 .56-.45 1-1 1s-1-.44-1-1c0-.54.45-1 1-1s1 .46 1 1zm0-7.97c0 .55-.45 1-1 1s-1-.45-1-1c0-.56.45-1 1-1s1 .44 1 1zm0-8c0 .56-.45 1-1 1s-1-.44-1-1c0-.54.45-1 1-1s1 .46 1 1zm0-7.97c0 .55-.45 1-1 1s-1-.45-1-1c0-.56.45-1 1-1s1 .44 1 1zm0-8c0 .56-.45 1-1 1s-1-.44-1-1c0-.54.45-1 1-1s1 .46 1 1zm0-7.97c0 .55-.45 1-1 1s-1-.45-1-1c0-.56.45-1 1-1s1 .44 1 1zm0-8c0 .56-.45 1-1 1s-1-.44-1-1c0-.54.45-1 1-1s1 .46 1 1zm0-7.98c0 .56-.45 1-1 1s-1-.44-1-1c0-.55.45-1 1-1s1 .45 1 1zm0-7.98c0 .55-.45 1-1 1s-1-.45-1-1 .45-1 1-1 1 .45 1 1zm0-8c0 .57-.45 1-1 1s-1-.43-1-1c0-.54.45-1 1-1s1 .46 1 1zm0-7.97c0 .55-.45 1-1 1s-1-.45-1-1 .45-1 1-1 1 .45 1 1zm0-8c0 .57-.45 1-1 1s-1-.43-1-1c0-.54.45-1 1-1s1 .46 1 1zm0-7.97c0 .55-.45 1-1 1s-1-.45-1-1 .45-1 1-1 1 .45 1 1zm0-8c0 .57-.45 1-1 1s-1-.43-1-1c0-.54.45-1 1-1s1 .46 1 1z" fill="#474747"/><use xlink:href="#B" transform="matrix(1,0,0,1,664.9999999999998,1006.3541666666667) translate(373.5435185185185 12.799999999999999)"/><use xlink:href="#C" transform="matrix(1,0,0,1,664.9999999999998,1006.3541666666667) translate(440.44351851851854 12.799999999999999)"/><use xlink:href="#D" transform="matrix(1,0,0,1,664.9999999999998,1006.3541666666667) translate(538.7064814814814 12.799999999999999)"/><path d="M688.33 686.35c0-16.56 13.43-30 30-30H1510c16.57 0 30 13.44 30 30V970c0 16.57-13.43 30-30 30H718.33c-16.57 0-30-13.43-30-30z" fill-opacity="0"/><path d="M703.37 660.44l3.18-1.68 4.7-1.57 4.93-.77 2.15-.08H733m14.65 0h29.33m14.66 0h29.32m14.66 0h29.32m14.66 0h29.32m14.66 0h29.32m14.66 0h29.32m14.66 0h29.32m14.66 0h29.33m14.66 0h29.33m14.66 0h29.3m14.67 0h29.32m14.65 0h29.32m14.66 0h29.32m14.66 0h29.33m14.67 0h29.32m14.66 0h29.32m14.66 0h29.32m14.66 0H1510l5 .42 4.82 1.23 4.54 2 .6.4m10.95 11l1.7 3.17 1.56 4.7.76 4.93.08 2.15v15.76m0 15.77v31.52m0 15.74v31.52m0 15.76v31.52m0 15.75v31.5m0 15.77v31.5m0 15.77V970l-.42 5-1.22 4.82-2 4.54-.42.6m-10.98 10.95l-3.17 1.7-4.72 1.56-4.93.76-2.15.08h-14.66m-14.66 0h-29.32m-14.66 0h-29.32m-14.66 0h-29.32m-14.67 0h-29.32m-14.65 0h-29.32m-14.66 0h-29.32m-14.66 0h-29.33m-14.66 0h-29.3m-14.67 0h-29.32m-14.65 0h-29.33m-14.66 0h-29.32m-14.66 0h-29.32m-14.66 0h-29.32m-14.66 0H879.6m-14.66 0h-29.32m-14.66 0h-29.32m-14.66 0h-29.33m-14.66 0h-14.67l-5-.42-4.82-1.22-4.53-2-.6-.42m-10.95-10.98l-1.68-3.17-1.57-4.72-.76-4.93-.07-2.15v-15.76m0-15.76v-31.5m0-15.77v-31.5m0-15.76v-31.52m0-15.76v-31.52m0-15.75v-31.53m0-15.76v-15.75l.42-5 1.23-4.82 2-4.54.4-.62" stroke="#f7981f" stroke-width="3" fill="none"/><use xlink:href="#y" transform="matrix(1,0,0,1,688.3333333333333,969.9999999999999) translate(353.325 12.799999999999999)"/><use xlink:href="#z" transform="matrix(1,0,0,1,688.3333333333333,969.9999999999999) translate(442.725 12.799999999999999)"/><use xlink:href="#E" transform="matrix(1,0,0,1,688.3333333333333,969.9999999999999) translate(488.675 12.799999999999999)"/><path d="M1125 753.67c0 31.8-25.76 57.63-57.5 57.63s-57.5-25.82-57.5-57.63c0-31.8 25.76-57.63 57.5-57.63s57.5 25.82 57.5 57.63z" fill="#9d5025"/><path d="M1125 748.94c0 31.8-25.76 57.63-57.5 57.63s-57.5-25.82-57.5-57.63c0-31.8 25.76-57.63 57.5-57.63s57.5 25.83 57.5 57.64z" fill="#f58536"/><path d="M1083.06 722.17h6.06v53.5h-6.06v-53.5zM1100.1 735.72l15.88 12.96-15.87 13.48v-26.44z" fill="#fff"/><path d="M1043.98 745.9l3.5 2.82-3.85 3.25h59.15v-6.06h-58.8zM1043.63 725.22h45.5v-6.07h-45.14l3.45 2.82-3.82 3.25zM1047.45 775.46l-3.82 3.26h45.5v-6.07h-45.14l3.45 2.8zM1031 738.35l12.68 10.35-12.7 10.82v-21.17zM1031 711.6l12.68 10.36-12.7 10.8V711.6zM1031 765.1l12.68 10.37-12.7 10.78V765.1z" fill="#fff"/><use xlink:href="#r" transform="matrix(1,0,0,1,1010,811.3095238094513) translate(4.424999999999997 14.4)"/><use xlink:href="#n" transform="matrix(1,0,0,1,1010,811.3095238094513) translate(43.625 14.4)"/><path d="M1276 160h140v740h-140z" fill="#fff" fill-opacity="0"/><path d="M1283 160h6m4 0h6m4 0h6m4 0h6m4 0h6m4 0h6m4 0h6m4 0h6m4 0h6m4 0h6m4 0h6m4 0h6m4 0h6m4 0h3v3m0 4v6m0 4v6m0 4v6m0 4v6m0 4v6m0 4v6m0 4v6m0 4v6m0 4v6m0 4v6m0 4v6m0 4v6m0 4v6m0 4v6m0 4v6m0 4v6m0 4v6m0 4v6m0 4v6m0 4v6m0 4v6m0 4v6m0 4v6m0 4v6m0 4v6m0 4v6m0 4v6m0 4v6m0 4v6m0 4v6m0 4v6m0 4v6m0 4v6m0 4v6m0 4v6m0 4v6m0 4v6m0 4v6m0 4v6m0 4v6m0 4v6m0 4v6m0 4v6m0 4v6m0 4v6m0 4v6m0 4v6m0 4v6m0 4v6m0 4v6m0 4v6m0 4v6m0 4v6m0 4v6m0 4v6m0 4v6m0 4v6m0 4v6m0 4v6m0 4v6m0 4v6m0 4v6m0 4v6m0 4v6m0 4v6m0 4v6m0 4v6m0 4v6m0 4v6m0 4v6m0 4v6m0 4v6m0 4v6m0 4v3h-3m-4 0h-6m-4 0h-6m-4 0h-6m-4 0h-6m-4 0h-6m-4 0h-6m-4 0h-6m-4 0h-6m-4 0h-6m-4 0h-6m-4 0h-6m-4 0h-6m-4 0h-6m-4 0h-3v-3m0-4v-6m0-4v-6m0-4v-6m0-4v-6m0-4v-6m0-4v-6m0-4v-6m0-4v-6m0-4v-6m0-4v-6m0-4v-6m0-4v-6m0-4v-6m0-4v-6m0-4v-6m0-4v-6m0-4v-6m0-4v-6m0-4v-6m0-4v-6m0-4v-6m0-4v-6m0-4v-6m0-4v-6m0-4v-6m0-4v-6m0-4v-6m0-4v-6m0-4v-6m0-4v-6m0-4v-6m0-4v-6m0-4v-6m0-4v-6m0-4v-6m0-4v-6m0-4v-6m0-4v-6m0-4v-6m0-4v-6m0-4v-6m0-4v-6m0-4v-6m0-4v-6m0-4v-6m0-4v-6m0-4v-6m0-4v-6m0-4v-6m0-4v-6m0-4v-6m0-4v-6m0-4v-6m0-4v-6m0-4v-6m0-4v-6m0-4v-6m0-4v-6m0-4v-6m0-4v-6m0-4v-6m0-4v-6m0-4v-6m0-4v-6m0-4v-6m0-4v-6m0-4v-6m0-4v-6m0-4v-6m0-4v-6m0-4v-6m0-4v-6m0-4v-6m0-4v-3h3" stroke="#d86613" stroke-width="2" fill="none"/><path d="M1318 160h56v56h-56v-56z" stroke="#fff" stroke-opacity="0" fill="#d86613"/><path d="M1337.68 183.73l-1.14 1.13 2.33 2.34H1326v1.6h12.87l-2.33 2.34 1.14 1.13 4.27-4.27-4.27-4.27zM1366 187.2h-12.87l2.33-2.34-1.14-1.13-4.27 4.27 4.27 4.27 1.14-1.13-2.33-2.34H1366v-1.6zM1345.2 170.63v12.87h1.6v-12.87l2.34 2.33 1.13-1.13-4.27-4.28-4.27 4.28 1.13 1.13 2.34-2.33zM1346.8 205.37V192.5h-1.6v12.87l-2.34-2.33-1.13 1.13 4.27 4.28 4.27-4.28-1.13-1.13-2.34 2.33z" stroke="#fff" stroke-opacity="0" fill="#fff"/><use xlink:href="#F" transform="matrix(1,0,0,1,1276,231) translate(23.549999999999997 14.4)"/><path d="M1125.44 509.7h22.2" stroke="#000" stroke-width="2" fill="none"/><path d="M1125.47 510.7h-1.16l.27-2h.9z"/><path d="M1162.9 509.7l-14.26 4.62v-9.27z" stroke="#000" stroke-width="2"/><path d="M1125.44 761.3h19.85V803h2.34" stroke="#000" stroke-width="2" fill="none"/><path d="M1125.47 762.3h-1.16l.27-2h.9z"/><path d="M1162.9 803l-14.26 4.64v-9.27z" stroke="#000" stroke-width="2"/><path d="M845.2 343.58h69.44c18.2 0 18.2 0 18.2 13.14v50.13c0 13.14 0 13.14-18.2 13.14H845.2c-18.2 0-18.2 0-18.2-13.15v-50.13c0-13.14 0-13.14 18.2-13.14z" fill="#9d5025"/><path d="M845.2 340h69.44c18.2 0 18.2 0 18.2 13.14v50.13c0 13.15 0 13.15-18.2 13.15H845.2c-18.2 0-18.2 0-18.2-13.15v-50.13C827 340 827 340 845.2 340z" fill="#f58536"/><use xlink:href="#G" transform="matrix(1,0,0,1,827,420) translate(2.049999999999997 14.4)"/><use xlink:href="#H" transform="matrix(1,0,0,1,827,420) translate(67 14.4)"/><path d="M757.5 592.6V390h51" stroke="#000" stroke-width="2" fill="none"/><path d="M758.5 593.64l-1-.04h-.53l-.47.03v-1.06h2z"/><path d="M823.76 390l-14.26 4.64v-9.28z" stroke="#000" stroke-width="2"/><path d="M933.84 390h133.66v31.2" stroke="#000" stroke-width="2" fill="none"/><path d="M933.87 391h-1.03v-2h1.03z"/><path d="M1067.5 436.45l-4.64-14.26h9.28z" stroke="#000" stroke-width="2"/><path d="M815 655.96c0 31.8-25.76 57.63-57.5 57.63S700 687.76 700 655.95c0-31.8 25.76-57.63 57.5-57.63s57.5 25.82 57.5 57.63z" fill="#9d5025"/><path d="M815 651.23c0 31.8-25.76 57.63-57.5 57.63S700 683.04 700 651.23c0-31.8 25.76-57.63 57.5-57.63s57.5 25.82 57.5 57.63z" fill="#f58536"/><path d="M752.77 616.9h9.45v69.04h-9.45V616.9z" fill="#fff"/><path d="M745.72 620.32l11.77-20.42 11.76 20.42h-23.54zM745.72 682.5l11.77 20.42 11.76-20.42h-23.54zM784.18 646.5h24.35v9.46h-24.35v-9.46z" fill="#fff"/><path d="M787.6 663.02l-20.37-11.8 20.38-11.8v23.6zM706.44 646.5h24.35v9.46h-24.36v-9.46z" fill="#fff"/><path d="M727.37 663.02l20.38-11.8-20.38-11.8v23.6z" fill="#fff"/><g><use xlink:href="#I" transform="matrix(1,0,0,1,700,713.5999999999999) translate(5.722839506172832 14.4)"/><use xlink:href="#J" transform="matrix(1,0,0,1,700,713.5999999999999) translate(47.672839506172835 14.4)"/></g><path d="M501.57 629H315.44" stroke="#000" stroke-width="2" fill="none"/><path d="M516.84 629l-14.27 4.64v-9.28z" stroke="#000" stroke-width="2"/><path d="M315.47 630h-1.16l.27-2h.9z"/><path d="M1164.17 642.5v23.4m8.54 14.85h2.66v20.75" stroke="#000" stroke-width="2" fill="none"/><path d="M1165.17 642.53h-2v-1.03h2z"/><path d="M1175.36 716.76l-4.64-14.26h9.27z" stroke="#000" stroke-width="2"/><path d="M635.44 643.02h32.1v-.26h14.62" stroke="#000" stroke-width="2" fill="none"/><path d="M635.47 644.02h-1.16l.27-2h.9z"/><path d="M697.43 642.76l-14.27 4.64v-9.27z" stroke="#000" stroke-width="2"/><path d="M970.52 487.1l28.68 10.72.36.17 10.44-.5v4.4l-9.96 3.72-.48.2-.36.16-28.68 10.7v-10.7h-54.36c-2.16 7.13-9.72 11.15-16.68 8.96-5.76-1.78-9.48-6.95-9.48-13.04v-4.4l26.16.43h54.36z" fill="#9d5025"/><path d="M970.47 482.7l28.74 10.7.37.16.48.15 9.94 3.8-9.83 3.7-.48.2-.5.14-28.6 10.7V501.5h-54.5c-2.27 7.08-9.7 10.98-16.64 8.73-6.94-2.22-10.78-9.75-8.62-16.8 2.27-7.05 9.7-10.95 16.64-8.7 4.2 1.36 7.3 4.4 8.63 8.7h54.37z" fill="#f58536"/><g><use xlink:href="#K" transform="matrix(1,0,0,1,890,516.6875000000389) translate(22.549999999999997 14.4)"/><use xlink:href="#L" transform="matrix(1,0,0,1,890,516.6875000000389) translate(80.45 14.4)"/></g><path d="M970.52 744.42l28.68 10.7.36.2 10.44-.52v4.4l-9.96 3.74-.48.2-.36.15-28.68 10.7v-10.7h-54.36c-2.16 7.12-9.72 11.14-16.68 8.95-5.76-1.77-9.48-6.95-9.48-13.04v-4.4l26.16.45h54.36z" fill="#9d5025"/><path d="M970.47 740l28.74 10.7.37.18.48.14 9.94 3.8-9.83 3.68-.48.2-.5.15-28.6 10.7v-10.72h-54.5c-2.27 7.06-9.7 10.96-16.64 8.7-6.94-2.2-10.78-9.74-8.62-16.77 2.27-7.07 9.7-10.97 16.64-8.72 4.2 1.36 7.3 4.4 8.63 8.72h54.37z" fill="#f58536"/><g><use xlink:href="#K" transform="matrix(1,0,0,1,890,774) translate(22.549999999999997 14.4)"/><use xlink:href="#L" transform="matrix(1,0,0,1,890,774) translate(80.45 14.4)"/></g><path d="M1497.7 352.68h44.6c11.7 0 11.7 0 11.7 9.86v37.6c0 9.85 0 9.85-11.7 9.85h-44.6c-11.7 0-11.7 0-11.7-9.86v-37.6c0-9.86 0-9.86 11.7-9.86z" fill="#9d5025"/><path d="M1497.7 350h44.6c11.7 0 11.7 0 11.7 9.86v37.6c0 9.85 0 9.85-11.7 9.85h-44.6c-11.7 0-11.7 0-11.7-9.85v-37.6c0-9.85 0-9.85 11.7-9.85z" fill="#f58536"/><g><use xlink:href="#M" transform="matrix(1,0,0,1,1486,410) translate(4.549999999999997 14.4)"/><use xlink:href="#N" transform="matrix(1,0,0,1,1486,410) translate(6.549999999999997 36)"/></g><path d="M1493.76 472.37h52.48c13.76 0 13.76 0 13.76 9.86v37.6c0 9.85 0 9.85-13.76 9.85h-52.48c-13.76 0-13.76 0-13.76-9.86v-37.6c0-9.85 0-9.85 13.76-9.85z" fill="#9d5025"/><path d="M1493.76 469.7h52.48c13.76 0 13.76 0 13.76 9.85v37.6c0 9.85 0 9.85-13.76 9.85h-52.48c-13.76 0-13.76 0-13.76-9.86v-37.6c0-9.85 0-9.85 13.76-9.85z" fill="#f58536"/><g><use xlink:href="#O" transform="matrix(1,0,0,1,1480,529.6875000000389) translate(-5.975000000000001 14.4)"/><use xlink:href="#N" transform="matrix(1,0,0,1,1480,529.6875000000389) translate(12.549999999999997 36)"/></g><defs><path fill="#232f3e" d="M205 0l-28-72H64L36 0H1l101-248h38L239 0h-34zm-38-99l-47-123c-12 45-31 82-46 123h93" id="P"/><path fill="#232f3e" d="M266 0h-40l-56-210L115 0H75L2-248h35L96-30l15-64 43-154h32l59 218 59-218h35" id="Q"/><path fill="#232f3e" d="M185-189c-5-48-123-54-124 2 14 75 158 14 163 119 3 78-121 87-175 55-17-10-28-26-33-46l33-7c5 56 141 63 141-1 0-78-155-14-162-118-5-82 145-84 179-34 5 7 8 16 11 25" id="R"/><g id="a"><use transform="matrix(0.05,0,0,0.05,0,0)" xlink:href="#P"/><use transform="matrix(0.05,0,0,0.05,11.35,0)" xlink:href="#Q"/><use transform="matrix(0.05,0,0,0.05,28.299999999999997,0)" xlink:href="#R"/></g><path fill="#232f3e" d="M212-179c-10-28-35-45-73-45-59 0-87 40-87 99 0 60 29 101 89 101 43 0 62-24 78-52l27 14C228-24 195 4 139 4 59 4 22-46 18-125c-6-104 99-153 187-111 19 9 31 26 39 46" id="S"/><path fill="#232f3e" d="M24 0v-261h32V0H24" id="T"/><path fill="#232f3e" d="M100-194c62-1 85 37 85 99 1 63-27 99-86 99S16-35 15-95c0-66 28-99 85-99zM99-20c44 1 53-31 53-75 0-43-8-75-51-75s-53 32-53 75 10 74 51 75" id="U"/><path fill="#232f3e" d="M84 4C-5 8 30-112 23-190h32v120c0 31 7 50 39 49 72-2 45-101 50-169h31l1 190h-30c-1-10 1-25-2-33-11 22-28 36-60 37" id="V"/><path fill="#232f3e" d="M85-194c31 0 48 13 60 33l-1-100h32l1 261h-30c-2-10 0-23-3-31C134-8 116 4 85 4 32 4 16-35 15-94c0-66 23-100 70-100zm9 24c-40 0-46 34-46 75 0 40 6 74 45 74 42 0 51-32 51-76 0-42-9-74-50-73" id="W"/><g id="b"><use transform="matrix(0.05,0,0,0.05,0,0)" xlink:href="#S"/><use transform="matrix(0.05,0,0,0.05,12.950000000000001,0)" xlink:href="#T"/><use transform="matrix(0.05,0,0,0.05,16.900000000000002,0)" xlink:href="#U"/><use transform="matrix(0.05,0,0,0.05,26.900000000000002,0)" xlink:href="#V"/><use transform="matrix(0.05,0,0,0.05,36.900000000000006,0)" xlink:href="#W"/></g><path fill="#333" d="M30-248c87 1 191-15 191 75 0 78-77 80-158 76V0H30v-248zm33 125c57 0 124 11 124-50 0-59-68-47-124-48v98" id="X"/><path fill="#333" d="M84 4C-5 8 30-112 23-190h32v120c0 31 7 50 39 49 72-2 45-101 50-169h31l1 190h-30c-1-10 1-25-2-33-11 22-28 36-60 37" id="Y"/><path fill="#333" d="M115-194c53 0 69 39 70 98 0 66-23 100-70 100C84 3 66-7 56-30L54 0H23l1-261h32v101c10-23 28-34 59-34zm-8 174c40 0 45-34 45-75 0-40-5-75-45-74-42 0-51 32-51 76 0 43 10 73 51 73" id="Z"/><path fill="#333" d="M24 0v-261h32V0H24" id="aa"/><path fill="#333" d="M24-231v-30h32v30H24zM24 0v-190h32V0H24" id="ab"/><path fill="#333" d="M96-169c-40 0-48 33-48 73s9 75 48 75c24 0 41-14 43-38l32 2c-6 37-31 61-74 61-59 0-76-41-82-99-10-93 101-131 147-64 4 7 5 14 7 22l-32 3c-4-21-16-35-41-35" id="ac"/><g id="c"><use transform="matrix(0.04938271604938272,0,0,0.04938271604938272,0,0)" xlink:href="#X"/><use transform="matrix(0.04938271604938272,0,0,0.04938271604938272,11.851851851851853,0)" xlink:href="#Y"/><use transform="matrix(0.04938271604938272,0,0,0.04938271604938272,21.7283950617284,0)" xlink:href="#Z"/><use transform="matrix(0.04938271604938272,0,0,0.04938271604938272,31.60493827160494,0)" xlink:href="#aa"/><use transform="matrix(0.04938271604938272,0,0,0.04938271604938272,35.50617283950618,0)" xlink:href="#ab"/><use transform="matrix(0.04938271604938272,0,0,0.04938271604938272,39.40740740740741,0)" xlink:href="#ac"/></g><path fill="#333" d="M185-189c-5-48-123-54-124 2 14 75 158 14 163 119 3 78-121 87-175 55-17-10-28-26-33-46l33-7c5 56 141 63 141-1 0-78-155-14-162-118-5-82 145-84 179-34 5 7 8 16 11 25" id="ad"/><path fill="#333" d="M190 0L58-211 59 0H30v-248h39L202-35l-2-213h31V0h-41" id="ae"/><g id="d"><use transform="matrix(0.04938271604938272,0,0,0.04938271604938272,0,0)" xlink:href="#ad"/><use transform="matrix(0.04938271604938272,0,0,0.04938271604938272,11.851851851851853,0)" xlink:href="#ae"/></g><path fill="#333" d="M27 0v-27h64v-190l-56 39v-29l58-41h29v221h61V0H27" id="af"/><path fill="#333" d="M33-154v-36h34v36H33zM33 0v-36h34V0H33" id="ag"/><g id="e"><use transform="matrix(0.04938271604938272,0,0,0.04938271604938272,0,0)" xlink:href="#af"/><use transform="matrix(0.04938271604938272,0,0,0.04938271604938272,9.876543209876544,0)" xlink:href="#ag"/></g><path fill="#333" d="M101-251c68 0 85 55 85 127S166 4 100 4C33 4 14-52 14-124c0-73 17-127 87-127zm-1 229c47 0 54-49 54-102s-4-102-53-102c-51 0-55 48-55 102 0 53 5 102 54 102" id="ah"/><path fill="#333" d="M33 0v-38h34V0H33" id="ai"/><path fill="#333" d="M0 4l72-265h28L28 4H0" id="aj"/><path fill="#333" d="M101-251c82-7 93 87 43 132L82-64C71-53 59-42 53-27h129V0H18c2-99 128-94 128-182 0-28-16-43-45-43s-46 15-49 41l-32-3c6-41 34-60 81-64" id="ak"/><path fill="#333" d="M155-56V0h-30v-56H8v-25l114-167h33v167h35v25h-35zm-30-156c-27 46-58 90-88 131h88v-131" id="al"/><g id="f"><use transform="matrix(0.04938271604938272,0,0,0.04938271604938272,0,0)" xlink:href="#af"/><use transform="matrix(0.04938271604938272,0,0,0.04938271604938272,9.876543209876544,0)" xlink:href="#ah"/><use transform="matrix(0.04938271604938272,0,0,0.04938271604938272,19.75308641975309,0)" xlink:href="#ai"/><use transform="matrix(0.04938271604938272,0,0,0.04938271604938272,24.69135802469136,0)" xlink:href="#ah"/><use transform="matrix(0.04938271604938272,0,0,0.04938271604938272,34.567901234567906,0)" xlink:href="#ai"/><use transform="matrix(0.04938271604938272,0,0,0.04938271604938272,39.50617283950618,0)" xlink:href="#af"/><use transform="matrix(0.04938271604938272,0,0,0.04938271604938272,49.38271604938272,0)" xlink:href="#ai"/><use transform="matrix(0.04938271604938272,0,0,0.04938271604938272,54.320987654320994,0)" xlink:href="#ah"/><use transform="matrix(0.04938271604938272,0,0,0.04938271604938272,64.19753086419755,0)" xlink:href="#aj"/><use transform="matrix(0.04938271604938272,0,0,0.04938271604938272,69.13580246913583,0)" xlink:href="#ak"/><use transform="matrix(0.04938271604938272,0,0,0.04938271604938272,79.01234567901237,0)" xlink:href="#al"/></g><path fill="#333" d="M137 0h-34L2-248h35l83 218 83-218h36" id="am"/><path fill="#333" d="M114-163C36-179 61-72 57 0H25l-1-190h30c1 12-1 29 2 39 6-27 23-49 58-41v29" id="an"/><path fill="#333" d="M59-47c-2 24 18 29 38 22v24C64 9 27 4 27-40v-127H5v-23h24l9-43h21v43h35v23H59v120" id="ao"/><path fill="#333" d="M141-36C126-15 110 5 73 4 37 3 15-17 15-53c-1-64 63-63 125-63 3-35-9-54-41-54-24 1-41 7-42 31l-33-3c5-37 33-52 76-52 45 0 72 20 72 64v82c-1 20 7 32 28 27v20c-31 9-61-2-59-35zM48-53c0 20 12 33 32 33 41-3 63-29 60-74-43 2-92-5-92 41" id="ap"/><g id="g"><use transform="matrix(0.05,0,0,0.05,0,0)" xlink:href="#am"/><use transform="matrix(0.04938271604938272,0,0,0.04938271604938272,12,0)" xlink:href="#ab"/><use transform="matrix(0.04938271604938272,0,0,0.04938271604938272,15.901234567901232,0)" xlink:href="#an"/><use transform="matrix(0.04938271604938272,0,0,0.04938271604938272,21.77777777777778,0)" xlink:href="#ao"/><use transform="matrix(0.04938271604938272,0,0,0.04938271604938272,26.71604938271605,0)" xlink:href="#Y"/><use transform="matrix(0.04938271604938272,0,0,0.04938271604938272,36.592592592592595,0)" xlink:href="#ap"/><use transform="matrix(0.04938271604938272,0,0,0.04938271604938272,46.46913580246914,0)" xlink:href="#aa"/></g><path fill="#333" d="M108 0H70L1-190h34L89-25l56-165h34" id="aq"/><path fill="#333" d="M100-194c63 0 86 42 84 106H49c0 40 14 67 53 68 26 1 43-12 49-29l28 8c-11 28-37 45-77 45C44 4 14-33 15-96c1-61 26-98 85-98zm52 81c6-60-76-77-97-28-3 7-6 17-6 28h103" id="ar"/><g id="h"><use transform="matrix(0.04938271604938272,0,0,0.04938271604938272,0,0)" xlink:href="#X"/><use transform="matrix(0.04938271604938272,0,0,0.04938271604938272,11.851851851851853,0)" xlink:href="#an"/><use transform="matrix(0.04938271604938272,0,0,0.04938271604938272,17.728395061728396,0)" xlink:href="#ab"/><use transform="matrix(0.04938271604938272,0,0,0.04938271604938272,21.62962962962963,0)" xlink:href="#aq"/><use transform="matrix(0.04938271604938272,0,0,0.04938271604938272,30.518518518518523,0)" xlink:href="#ap"/><use transform="matrix(0.04938271604938272,0,0,0.04938271604938272,40.39506172839506,0)" xlink:href="#ao"/><use transform="matrix(0.04938271604938272,0,0,0.04938271604938272,45.333333333333336,0)" xlink:href="#ar"/></g><path fill="#333" d="M212-179c-10-28-35-45-73-45-59 0-87 40-87 99 0 60 29 101 89 101 43 0 62-24 78-52l27 14C228-24 195 4 139 4 59 4 22-46 18-125c-6-104 99-153 187-111 19 9 31 26 39 46" id="as"/><path fill="#333" d="M100-194c62-1 85 37 85 99 1 63-27 99-86 99S16-35 15-95c0-66 28-99 85-99zM99-20c44 1 53-31 53-75 0-43-8-75-51-75s-53 32-53 75 10 74 51 75" id="at"/><path fill="#333" d="M85-194c31 0 48 13 60 33l-1-100h32l1 261h-30c-2-10 0-23-3-31C134-8 116 4 85 4 32 4 16-35 15-94c0-66 23-100 70-100zm9 24c-40 0-46 34-46 75 0 40 6 74 45 74 42 0 51-32 51-76 0-42-9-74-50-73" id="au"/><g id="i"><use transform="matrix(0.04938271604938272,0,0,0.04938271604938272,0,0)" xlink:href="#as"/><use transform="matrix(0.04938271604938272,0,0,0.04938271604938272,12.790123456790125,0)" xlink:href="#aa"/><use transform="matrix(0.04938271604938272,0,0,0.04938271604938272,16.69135802469136,0)" xlink:href="#at"/><use transform="matrix(0.04938271604938272,0,0,0.04938271604938272,26.567901234567902,0)" xlink:href="#Y"/><use transform="matrix(0.04938271604938272,0,0,0.04938271604938272,36.44444444444445,0)" xlink:href="#au"/></g><g id="j"><use transform="matrix(0.04938271604938272,0,0,0.04938271604938272,0,0)" xlink:href="#ak"/><use transform="matrix(0.04938271604938272,0,0,0.04938271604938272,9.876543209876544,0)" xlink:href="#ag"/></g><g id="k"><use transform="matrix(0.04938271604938272,0,0,0.04938271604938272,0,0)" xlink:href="#af"/><use transform="matrix(0.04938271604938272,0,0,0.04938271604938272,9.876543209876544,0)" xlink:href="#ah"/><use transform="matrix(0.04938271604938272,0,0,0.04938271604938272,19.75308641975309,0)" xlink:href="#ai"/><use transform="matrix(0.04938271604938272,0,0,0.04938271604938272,24.69135802469136,0)" xlink:href="#ah"/><use transform="matrix(0.04938271604938272,0,0,0.04938271604938272,34.567901234567906,0)" xlink:href="#ai"/><use transform="matrix(0.04938271604938272,0,0,0.04938271604938272,39.50617283950618,0)" xlink:href="#ak"/><use transform="matrix(0.04938271604938272,0,0,0.04938271604938272,49.38271604938272,0)" xlink:href="#ai"/><use transform="matrix(0.04938271604938272,0,0,0.04938271604938272,54.320987654320994,0)" xlink:href="#ah"/><use transform="matrix(0.04938271604938272,0,0,0.04938271604938272,64.19753086419755,0)" xlink:href="#aj"/><use transform="matrix(0.04938271604938272,0,0,0.04938271604938272,69.13580246913583,0)" xlink:href="#ak"/><use transform="matrix(0.04938271604938272,0,0,0.04938271604938272,79.01234567901237,0)" xlink:href="#al"/></g><path fill="#333" d="M232-93c-1 65-40 97-104 97C67 4 28-28 28-90v-158h33c8 89-33 224 67 224 102 0 64-133 71-224h33v155" id="av"/><path fill="#333" d="M135-143c-3-34-86-38-87 0 15 53 115 12 119 90S17 21 10-45l28-5c4 36 97 45 98 0-10-56-113-15-118-90-4-57 82-63 122-42 12 7 21 19 24 35" id="aw"/><g id="l"><use transform="matrix(0.05,0,0,0.05,0,0)" xlink:href="#av"/><use transform="matrix(0.05,0,0,0.05,12.950000000000001,0)" xlink:href="#aw"/><use transform="matrix(0.05,0,0,0.05,21.950000000000003,0)" xlink:href="#ar"/><use transform="matrix(0.05,0,0,0.05,31.950000000000003,0)" xlink:href="#an"/><use transform="matrix(0.05,0,0,0.05,37.900000000000006,0)" xlink:href="#aw"/></g><path d="M33 0v-248h34V0H33" id="ax"/><path d="M117-194c89-4 53 116 60 194h-32v-121c0-31-8-49-39-48C34-167 62-67 57 0H25l-1-190h30c1 10-1 24 2 32 11-22 29-35 61-36" id="ay"/><path d="M59-47c-2 24 18 29 38 22v24C64 9 27 4 27-40v-127H5v-23h24l9-43h21v43h35v23H59v120" id="az"/><path d="M100-194c63 0 86 42 84 106H49c0 40 14 67 53 68 26 1 43-12 49-29l28 8c-11 28-37 45-77 45C44 4 14-33 15-96c1-61 26-98 85-98zm52 81c6-60-76-77-97-28-3 7-6 17-6 28h103" id="aA"/><path d="M114-163C36-179 61-72 57 0H25l-1-190h30c1 12-1 29 2 39 6-27 23-49 58-41v29" id="aB"/><g id="m"><use transform="matrix(0.05,0,0,0.05,0,0)" xlink:href="#ax"/><use transform="matrix(0.05,0,0,0.05,5,0)" xlink:href="#ay"/><use transform="matrix(0.05,0,0,0.05,15,0)" xlink:href="#az"/><use transform="matrix(0.05,0,0,0.05,20,0)" xlink:href="#aA"/><use transform="matrix(0.05,0,0,0.05,30,0)" xlink:href="#aB"/><use transform="matrix(0.05,0,0,0.05,35.95,0)" xlink:href="#ay"/><use transform="matrix(0.05,0,0,0.05,45.95,0)" xlink:href="#aA"/><use transform="matrix(0.05,0,0,0.05,55.95,0)" xlink:href="#az"/></g><path d="M177-190C167-65 218 103 67 71c-23-6-38-20-44-43l32-5c15 47 100 32 89-28v-30C133-14 115 1 83 1 29 1 15-40 15-95c0-56 16-97 71-98 29-1 48 16 59 35 1-10 0-23 2-32h30zM94-22c36 0 50-32 50-73 0-42-14-75-50-75-39 0-46 34-46 75s6 73 46 73" id="aC"/><path d="M141-36C126-15 110 5 73 4 37 3 15-17 15-53c-1-64 63-63 125-63 3-35-9-54-41-54-24 1-41 7-42 31l-33-3c5-37 33-52 76-52 45 0 72 20 72 64v82c-1 20 7 32 28 27v20c-31 9-61-2-59-35zM48-53c0 20 12 33 32 33 41-3 63-29 60-74-43 2-92-5-92 41" id="aD"/><path d="M206 0h-36l-40-164L89 0H53L-1-190h32L70-26l43-164h34l41 164 42-164h31" id="aE"/><path d="M179-190L93 31C79 59 56 82 12 73V49c39 6 53-20 64-50L1-190h34L92-34l54-156h33" id="aF"/><g id="n"><use transform="matrix(0.05,0,0,0.05,0,0)" xlink:href="#aC"/><use transform="matrix(0.05,0,0,0.05,10,0)" xlink:href="#aD"/><use transform="matrix(0.05,0,0,0.05,20,0)" xlink:href="#az"/><use transform="matrix(0.05,0,0,0.05,25,0)" xlink:href="#aA"/><use transform="matrix(0.05,0,0,0.05,35,0)" xlink:href="#aE"/><use transform="matrix(0.05,0,0,0.05,47.95,0)" xlink:href="#aD"/><use transform="matrix(0.05,0,0,0.05,57.95,0)" xlink:href="#aF"/></g><path d="M205 0l-28-72H64L36 0H1l101-248h38L239 0h-34zm-38-99l-47-123c-12 45-31 82-46 123h93" id="aG"/><path d="M115-194c55 1 70 41 70 98S169 2 115 4C84 4 66-9 55-30l1 105H24l-1-265h31l2 30c10-21 28-34 59-34zm-8 174c40 0 45-34 45-75s-6-73-45-74c-42 0-51 32-51 76 0 43 10 73 51 73" id="aH"/><path d="M24 0v-261h32V0H24" id="aI"/><path d="M24-231v-30h32v30H24zM24 0v-190h32V0H24" id="aJ"/><path d="M96-169c-40 0-48 33-48 73s9 75 48 75c24 0 41-14 43-38l32 2c-6 37-31 61-74 61-59 0-76-41-82-99-10-93 101-131 147-64 4 7 5 14 7 22l-32 3c-4-21-16-35-41-35" id="aK"/><path d="M100-194c62-1 85 37 85 99 1 63-27 99-86 99S16-35 15-95c0-66 28-99 85-99zM99-20c44 1 53-31 53-75 0-43-8-75-51-75s-53 32-53 75 10 74 51 75" id="aL"/><g id="o"><use transform="matrix(0.05,0,0,0.05,0,0)" xlink:href="#aG"/><use transform="matrix(0.05,0,0,0.05,12,0)" xlink:href="#aH"/><use transform="matrix(0.05,0,0,0.05,22,0)" xlink:href="#aH"/><use transform="matrix(0.05,0,0,0.05,32,0)" xlink:href="#aI"/><use transform="matrix(0.05,0,0,0.05,35.95,0)" xlink:href="#aJ"/><use transform="matrix(0.05,0,0,0.05,39.900000000000006,0)" xlink:href="#aK"/><use transform="matrix(0.05,0,0,0.05,48.900000000000006,0)" xlink:href="#aD"/><use transform="matrix(0.05,0,0,0.05,58.900000000000006,0)" xlink:href="#az"/><use transform="matrix(0.05,0,0,0.05,63.900000000000006,0)" xlink:href="#aJ"/><use transform="matrix(0.05,0,0,0.05,67.85000000000001,0)" xlink:href="#aL"/><use transform="matrix(0.05,0,0,0.05,77.85000000000001,0)" xlink:href="#ay"/></g><path d="M30 0v-248h33v221h125V0H30" id="aM"/><path d="M85-194c31 0 48 13 60 33l-1-100h32l1 261h-30c-2-10 0-23-3-31C134-8 116 4 85 4 32 4 16-35 15-94c0-66 23-100 70-100zm9 24c-40 0-46 34-46 75 0 40 6 74 45 74 42 0 51-32 51-76 0-42-9-74-50-73" id="aN"/><g id="p"><use transform="matrix(0.05,0,0,0.05,0,0)" xlink:href="#aM"/><use transform="matrix(0.05,0,0,0.05,10,0)" xlink:href="#aL"/><use transform="matrix(0.05,0,0,0.05,20,0)" xlink:href="#aD"/><use transform="matrix(0.05,0,0,0.05,30,0)" xlink:href="#aN"/></g><path d="M160-131c35 5 61 23 61 61C221 17 115-2 30 0v-248c76 3 177-17 177 60 0 33-19 50-47 57zm-97-11c50-1 110 9 110-42 0-47-63-36-110-37v79zm0 115c55-2 124 14 124-45 0-56-70-42-124-44v89" id="aO"/><g id="q"><use transform="matrix(0.05,0,0,0.05,0,0)" xlink:href="#aO"/><use transform="matrix(0.05,0,0,0.05,12,0)" xlink:href="#aD"/><use transform="matrix(0.05,0,0,0.05,22,0)" xlink:href="#aI"/><use transform="matrix(0.05,0,0,0.05,25.950000000000003,0)" xlink:href="#aD"/><use transform="matrix(0.05,0,0,0.05,35.95,0)" xlink:href="#ay"/><use transform="matrix(0.05,0,0,0.05,45.95,0)" xlink:href="#aK"/><use transform="matrix(0.05,0,0,0.05,54.95,0)" xlink:href="#aA"/><use transform="matrix(0.05,0,0,0.05,64.95,0)" xlink:href="#aB"/></g><path d="M190 0L58-211 59 0H30v-248h39L202-35l-2-213h31V0h-41" id="aP"/><path d="M127-220V0H93v-220H8v-28h204v28h-85" id="aQ"/><g id="r"><use transform="matrix(0.05,0,0,0.05,0,0)" xlink:href="#aP"/><use transform="matrix(0.05,0,0,0.05,12.950000000000001,0)" xlink:href="#aG"/><use transform="matrix(0.05,0,0,0.05,23.6,0)" xlink:href="#aQ"/></g><g id="s"><use transform="matrix(0.04938271604938272,0,0,0.04938271604938272,0,0)" xlink:href="#X"/><use transform="matrix(0.04938271604938272,0,0,0.04938271604938272,11.851851851851853,0)" xlink:href="#an"/><use transform="matrix(0.04938271604938272,0,0,0.04938271604938272,17.728395061728396,0)" xlink:href="#ab"/><use transform="matrix(0.04938271604938272,0,0,0.04938271604938272,21.62962962962963,0)" xlink:href="#aq"/><use transform="matrix(0.04938271604938272,0,0,0.04938271604938272,30.518518518518523,0)" xlink:href="#ap"/><use transform="matrix(0.04938271604938272,0,0,0.04938271604938272,40.39506172839506,0)" xlink:href="#ao"/><use transform="matrix(0.04938271604938272,0,0,0.04938271604938272,45.333333333333336,0)" xlink:href="#ar"/></g><path fill="#333" d="M126-127c33 6 58 20 58 59 0 88-139 92-164 29-3-8-5-16-6-25l32-3c6 27 21 44 54 44 32 0 52-15 52-46 0-38-36-46-79-43v-28c39 1 72-4 72-42 0-27-17-43-46-43-28 0-47 15-49 41l-32-3c6-42 35-63 81-64 48-1 79 21 79 65 0 36-21 52-52 59" id="aR"/><g id="t"><use transform="matrix(0.04938271604938272,0,0,0.04938271604938272,0,0)" xlink:href="#af"/><use transform="matrix(0.04938271604938272,0,0,0.04938271604938272,9.876543209876544,0)" xlink:href="#ah"/><use transform="matrix(0.04938271604938272,0,0,0.04938271604938272,19.75308641975309,0)" xlink:href="#ai"/><use transform="matrix(0.04938271604938272,0,0,0.04938271604938272,24.69135802469136,0)" xlink:href="#ah"/><use transform="matrix(0.04938271604938272,0,0,0.04938271604938272,34.567901234567906,0)" xlink:href="#ai"/><use transform="matrix(0.04938271604938272,0,0,0.04938271604938272,39.50617283950618,0)" xlink:href="#aR"/><use transform="matrix(0.04938271604938272,0,0,0.04938271604938272,49.38271604938272,0)" xlink:href="#ai"/><use transform="matrix(0.04938271604938272,0,0,0.04938271604938272,54.320987654320994,0)" xlink:href="#ah"/><use transform="matrix(0.04938271604938272,0,0,0.04938271604938272,64.19753086419755,0)" xlink:href="#aj"/><use transform="matrix(0.04938271604938272,0,0,0.04938271604938272,69.13580246913583,0)" xlink:href="#ak"/><use transform="matrix(0.04938271604938272,0,0,0.04938271604938272,79.01234567901237,0)" xlink:href="#al"/></g><path d="M232-93c-1 65-40 97-104 97C67 4 28-28 28-90v-158h33c8 89-33 224 67 224 102 0 64-133 71-224h33v155" id="aS"/><path d="M115-194c53 0 69 39 70 98 0 66-23 100-70 100C84 3 66-7 56-30L54 0H23l1-261h32v101c10-23 28-34 59-34zm-8 174c40 0 45-34 45-75 0-40-5-75-45-74-42 0-51 32-51 76 0 43 10 73 51 73" id="aT"/><path d="M84 4C-5 8 30-112 23-190h32v120c0 31 7 50 39 49 72-2 45-101 50-169h31l1 190h-30c-1-10 1-25-2-33-11 22-28 36-60 37" id="aU"/><g id="u"><use transform="matrix(0.05,0,0,0.05,0,0)" xlink:href="#aS"/><use transform="matrix(0.05,0,0,0.05,12.950000000000001,0)" xlink:href="#aT"/><use transform="matrix(0.05,0,0,0.05,22.950000000000003,0)" xlink:href="#aU"/><use transform="matrix(0.05,0,0,0.05,32.95,0)" xlink:href="#ay"/><use transform="matrix(0.05,0,0,0.05,42.95,0)" xlink:href="#az"/><use transform="matrix(0.05,0,0,0.05,47.95,0)" xlink:href="#aU"/></g><path d="M27 0v-27h64v-190l-56 39v-29l58-41h29v221h61V0H27" id="aV"/><path d="M134-131c28 9 52 24 51 62-1 50-34 73-85 73S17-19 16-69c0-36 21-54 49-61-75-25-45-126 34-121 46 3 78 18 79 63 0 33-17 51-44 57zm-34-11c31 1 46-15 46-44 0-28-17-43-47-42-29 0-46 13-45 42 1 28 16 44 46 44zm1 122c35 0 51-18 51-52 0-30-18-46-53-46-33 0-51 17-51 47 0 34 19 51 53 51" id="aW"/><g id="v"><use transform="matrix(0.05,0,0,0.05,0,0)" xlink:href="#aV"/><use transform="matrix(0.05,0,0,0.05,10,0)" xlink:href="#aW"/></g><path d="M266 0h-40l-56-210L115 0H75L2-248h35L96-30l15-64 43-154h32l59 218 59-218h35" id="aX"/><path d="M135-143c-3-34-86-38-87 0 15 53 115 12 119 90S17 21 10-45l28-5c4 36 97 45 98 0-10-56-113-15-118-90-4-57 82-63 122-42 12 7 21 19 24 35" id="aY"/><path d="M108 0H70L1-190h34L89-25l56-165h34" id="aZ"/><g id="w"><use transform="matrix(0.05,0,0,0.05,0,0)" xlink:href="#aX"/><use transform="matrix(0.05,0,0,0.05,16.599999999999998,0)" xlink:href="#aA"/><use transform="matrix(0.05,0,0,0.05,26.599999999999994,0)" xlink:href="#aT"/><use transform="matrix(0.05,0,0,0.05,36.599999999999994,0)" xlink:href="#aY"/><use transform="matrix(0.05,0,0,0.05,45.599999999999994,0)" xlink:href="#aA"/><use transform="matrix(0.05,0,0,0.05,55.599999999999994,0)" xlink:href="#aB"/><use transform="matrix(0.05,0,0,0.05,61.54999999999999,0)" xlink:href="#aZ"/><use transform="matrix(0.05,0,0,0.05,70.55,0)" xlink:href="#aA"/><use transform="matrix(0.05,0,0,0.05,80.55,0)" xlink:href="#aB"/></g><g id="x"><use transform="matrix(0.04938271604938272,0,0,0.04938271604938272,0,0)" xlink:href="#af"/><use transform="matrix(0.04938271604938272,0,0,0.04938271604938272,9.876543209876544,0)" xlink:href="#ah"/><use transform="matrix(0.04938271604938272,0,0,0.04938271604938272,19.75308641975309,0)" xlink:href="#ai"/><use transform="matrix(0.04938271604938272,0,0,0.04938271604938272,24.69135802469136,0)" xlink:href="#ah"/><use transform="matrix(0.04938271604938272,0,0,0.04938271604938272,34.567901234567906,0)" xlink:href="#ai"/><use transform="matrix(0.04938271604938272,0,0,0.04938271604938272,39.50617283950618,0)" xlink:href="#al"/><use transform="matrix(0.04938271604938272,0,0,0.04938271604938272,49.38271604938272,0)" xlink:href="#ai"/><use transform="matrix(0.04938271604938272,0,0,0.04938271604938272,54.320987654320994,0)" xlink:href="#ah"/><use transform="matrix(0.04938271604938272,0,0,0.04938271604938272,64.19753086419755,0)" xlink:href="#aj"/><use transform="matrix(0.04938271604938272,0,0,0.04938271604938272,69.13580246913583,0)" xlink:href="#ak"/><use transform="matrix(0.04938271604938272,0,0,0.04938271604938272,79.01234567901237,0)" xlink:href="#al"/></g><g id="y"><use transform="matrix(0.05,0,0,0.05,0,0)" xlink:href="#aG"/><use transform="matrix(0.05,0,0,0.05,11.65,0)" xlink:href="#aZ"/><use transform="matrix(0.05,0,0,0.05,20.65,0)" xlink:href="#aD"/><use transform="matrix(0.05,0,0,0.05,30.649999999999995,0)" xlink:href="#aJ"/><use transform="matrix(0.05,0,0,0.05,34.6,0)" xlink:href="#aI"/><use transform="matrix(0.05,0,0,0.05,38.550000000000004,0)" xlink:href="#aD"/><use transform="matrix(0.05,0,0,0.05,48.550000000000004,0)" xlink:href="#aT"/><use transform="matrix(0.05,0,0,0.05,58.550000000000004,0)" xlink:href="#aJ"/><use transform="matrix(0.05,0,0,0.05,62.5,0)" xlink:href="#aI"/><use transform="matrix(0.05,0,0,0.05,66.45,0)" xlink:href="#aJ"/><use transform="matrix(0.05,0,0,0.05,70.4,0)" xlink:href="#az"/><use transform="matrix(0.05,0,0,0.05,75.4,0)" xlink:href="#aF"/></g><path d="M209 0H11v-25l151-195H24v-28h176v25L50-27h159V0" id="ba"/><g id="z"><use transform="matrix(0.05,0,0,0.05,0,0)" xlink:href="#ba"/><use transform="matrix(0.05,0,0,0.05,10.950000000000001,0)" xlink:href="#aL"/><use transform="matrix(0.05,0,0,0.05,20.950000000000003,0)" xlink:href="#ay"/><use transform="matrix(0.05,0,0,0.05,30.950000000000003,0)" xlink:href="#aA"/></g><use transform="matrix(0.05,0,0,0.05,0,0)" xlink:href="#aV" id="A"/><path d="M233-177c-1 41-23 64-60 70L243 0h-38l-65-103H63V0H30v-248c88 3 205-21 203 71zM63-129c60-2 137 13 137-47 0-61-80-42-137-45v92" id="bb"/><path d="M33-154v-36h34v36H33zM33 0v-36h34V0H33" id="bc"/><g id="B"><use transform="matrix(0.05,0,0,0.05,0,0)" xlink:href="#bb"/><use transform="matrix(0.05,0,0,0.05,12.950000000000001,0)" xlink:href="#aA"/><use transform="matrix(0.05,0,0,0.05,22.950000000000003,0)" xlink:href="#aC"/><use transform="matrix(0.05,0,0,0.05,32.95,0)" xlink:href="#aJ"/><use transform="matrix(0.05,0,0,0.05,36.900000000000006,0)" xlink:href="#aL"/><use transform="matrix(0.05,0,0,0.05,46.900000000000006,0)" xlink:href="#ay"/><use transform="matrix(0.05,0,0,0.05,56.900000000000006,0)" xlink:href="#bc"/></g><path d="M16-82v-28h88v28H16" id="bd"/><g id="C"><use transform="matrix(0.048148148148148155,0,0,0.048148148148148155,0,0)" xlink:href="#aU"/><use transform="matrix(0.048148148148148155,0,0,0.048148148148148155,9.629629629629632,0)" xlink:href="#aY"/><use transform="matrix(0.048148148148148155,0,0,0.048148148148148155,18.296296296296298,0)" xlink:href="#bd"/><use transform="matrix(0.048148148148148155,0,0,0.048148148148148155,24.02592592592593,0)" xlink:href="#aA"/><use transform="matrix(0.048148148148148155,0,0,0.048148148148148155,33.65555555555556,0)" xlink:href="#aU"/><use transform="matrix(0.048148148148148155,0,0,0.048148148148148155,43.28518518518519,0)" xlink:href="#aB"/><use transform="matrix(0.048148148148148155,0,0,0.048148148148148155,49.01481481481482,0)" xlink:href="#aL"/><use transform="matrix(0.048148148148148155,0,0,0.048148148148148155,58.64444444444445,0)" xlink:href="#aH"/><use transform="matrix(0.048148148148148155,0,0,0.048148148148148155,68.27407407407408,0)" xlink:href="#aA"/><use transform="matrix(0.048148148148148155,0,0,0.048148148148148155,77.90370370370371,0)" xlink:href="#bd"/><use transform="matrix(0.048148148148148155,0,0,0.048148148148148155,83.63333333333334,0)" xlink:href="#aV"/></g><path d="M87 75C49 33 22-17 22-94c0-76 28-126 65-167h31c-38 41-64 92-64 168S80 34 118 75H87" id="be"/><path d="M63-220v92h138v28H63V0H30v-248h175v28H63" id="bf"/><path d="M143 0L79-87 56-68V0H24v-261h32v163l83-92h37l-77 82L181 0h-38" id="bg"/><path d="M101-234c-31-9-42 10-38 44h38v23H63V0H32v-167H5v-23h27c-7-52 17-82 69-68v24" id="bh"/><path d="M33-261c38 41 65 92 65 168S71 34 33 75H2C39 34 66-17 66-93S39-220 2-261h31" id="bi"/><g id="D"><use transform="matrix(0.05,0,0,0.05,0,0)" xlink:href="#be"/><use transform="matrix(0.05,0,0,0.05,5.95,0)" xlink:href="#bf"/><use transform="matrix(0.05,0,0,0.05,16.900000000000002,0)" xlink:href="#aB"/><use transform="matrix(0.05,0,0,0.05,22.85,0)" xlink:href="#aD"/><use transform="matrix(0.05,0,0,0.05,32.85,0)" xlink:href="#ay"/><use transform="matrix(0.05,0,0,0.05,42.85,0)" xlink:href="#bg"/><use transform="matrix(0.05,0,0,0.05,51.85,0)" xlink:href="#bh"/><use transform="matrix(0.05,0,0,0.05,56.85,0)" xlink:href="#aU"/><use transform="matrix(0.05,0,0,0.05,66.85,0)" xlink:href="#aB"/><use transform="matrix(0.05,0,0,0.05,72.8,0)" xlink:href="#az"/><use transform="matrix(0.05,0,0,0.05,77.8,0)" xlink:href="#bi"/></g><path d="M101-251c82-7 93 87 43 132L82-64C71-53 59-42 53-27h129V0H18c2-99 128-94 128-182 0-28-16-43-45-43s-46 15-49 41l-32-3c6-41 34-60 81-64" id="bj"/><use transform="matrix(0.05,0,0,0.05,0,0)" xlink:href="#bj" id="E"/><path fill="#d86613" d="M205 0l-28-72H64L36 0H1l101-248h38L239 0h-34zm-38-99l-47-123c-12 45-31 82-46 123h93" id="bk"/><path fill="#d86613" d="M84 4C-5 8 30-112 23-190h32v120c0 31 7 50 39 49 72-2 45-101 50-169h31l1 190h-30c-1-10 1-25-2-33-11 22-28 36-60 37" id="bl"/><path fill="#d86613" d="M59-47c-2 24 18 29 38 22v24C64 9 27 4 27-40v-127H5v-23h24l9-43h21v43h35v23H59v120" id="bm"/><path fill="#d86613" d="M100-194c62-1 85 37 85 99 1 63-27 99-86 99S16-35 15-95c0-66 28-99 85-99zM99-20c44 1 53-31 53-75 0-43-8-75-51-75s-53 32-53 75 10 74 51 75" id="bn"/><path fill="#d86613" d="M135-143c-3-34-86-38-87 0 15 53 115 12 119 90S17 21 10-45l28-5c4 36 97 45 98 0-10-56-113-15-118-90-4-57 82-63 122-42 12 7 21 19 24 35" id="bo"/><path fill="#d86613" d="M96-169c-40 0-48 33-48 73s9 75 48 75c24 0 41-14 43-38l32 2c-6 37-31 61-74 61-59 0-76-41-82-99-10-93 101-131 147-64 4 7 5 14 7 22l-32 3c-4-21-16-35-41-35" id="bp"/><path fill="#d86613" d="M141-36C126-15 110 5 73 4 37 3 15-17 15-53c-1-64 63-63 125-63 3-35-9-54-41-54-24 1-41 7-42 31l-33-3c5-37 33-52 76-52 45 0 72 20 72 64v82c-1 20 7 32 28 27v20c-31 9-61-2-59-35zM48-53c0 20 12 33 32 33 41-3 63-29 60-74-43 2-92-5-92 41" id="bq"/><path fill="#d86613" d="M24 0v-261h32V0H24" id="br"/><path fill="#d86613" d="M24-231v-30h32v30H24zM24 0v-190h32V0H24" id="bs"/><path fill="#d86613" d="M117-194c89-4 53 116 60 194h-32v-121c0-31-8-49-39-48C34-167 62-67 57 0H25l-1-190h30c1 10-1 24 2 32 11-22 29-35 61-36" id="bt"/><path fill="#d86613" d="M177-190C167-65 218 103 67 71c-23-6-38-20-44-43l32-5c15 47 100 32 89-28v-30C133-14 115 1 83 1 29 1 15-40 15-95c0-56 16-97 71-98 29-1 48 16 59 35 1-10 0-23 2-32h30zM94-22c36 0 50-32 50-73 0-42-14-75-50-75-39 0-46 34-46 75s6 73 46 73" id="bu"/><g id="F"><use transform="matrix(0.05,0,0,0.05,0,0)" xlink:href="#bk"/><use transform="matrix(0.05,0,0,0.05,12,0)" xlink:href="#bl"/><use transform="matrix(0.05,0,0,0.05,22,0)" xlink:href="#bm"/><use transform="matrix(0.05,0,0,0.05,27,0)" xlink:href="#bn"/><use transform="matrix(0.05,0,0,0.05,37,0)" xlink:href="#bo"/><use transform="matrix(0.05,0,0,0.05,46,0)" xlink:href="#bp"/><use transform="matrix(0.05,0,0,0.05,55,0)" xlink:href="#bq"/><use transform="matrix(0.05,0,0,0.05,65,0)" xlink:href="#br"/><use transform="matrix(0.05,0,0,0.05,68.95,0)" xlink:href="#bs"/><use transform="matrix(0.05,0,0,0.05,72.9,0)" xlink:href="#bt"/><use transform="matrix(0.05,0,0,0.05,82.9,0)" xlink:href="#bu"/></g><g id="G"><use transform="matrix(0.05,0,0,0.05,0,0)" xlink:href="#aO"/><use transform="matrix(0.05,0,0,0.05,12,0)" xlink:href="#aD"/><use transform="matrix(0.05,0,0,0.05,22,0)" xlink:href="#aY"/><use transform="matrix(0.05,0,0,0.05,31,0)" xlink:href="#az"/><use transform="matrix(0.05,0,0,0.05,36,0)" xlink:href="#aJ"/><use transform="matrix(0.05,0,0,0.05,39.95,0)" xlink:href="#aL"/><use transform="matrix(0.05,0,0,0.05,49.95,0)" xlink:href="#ay"/></g><path d="M197 0v-115H63V0H30v-248h33v105h134v-105h34V0h-34" id="bv"/><g id="H"><use transform="matrix(0.05,0,0,0.05,0,0)" xlink:href="#bv"/><use transform="matrix(0.05,0,0,0.05,12.950000000000001,0)" xlink:href="#aL"/><use transform="matrix(0.05,0,0,0.05,22.950000000000003,0)" xlink:href="#aY"/><use transform="matrix(0.05,0,0,0.05,31.950000000000003,0)" xlink:href="#az"/></g><path d="M137 0h-34L2-248h35l83 218 83-218h36" id="bw"/><path d="M30-248c87 1 191-15 191 75 0 78-77 80-158 76V0H30v-248zm33 125c57 0 124 11 124-50 0-59-68-47-124-48v98" id="bx"/><path d="M212-179c-10-28-35-45-73-45-59 0-87 40-87 99 0 60 29 101 89 101 43 0 62-24 78-52l27 14C228-24 195 4 139 4 59 4 22-46 18-125c-6-104 99-153 187-111 19 9 31 26 39 46" id="by"/><g id="I"><use transform="matrix(0.05,0,0,0.05,0,0)" xlink:href="#bw"/><use transform="matrix(0.05,0,0,0.05,12,0)" xlink:href="#bx"/><use transform="matrix(0.05,0,0,0.05,24,0)" xlink:href="#by"/></g><g id="J"><use transform="matrix(0.05,0,0,0.05,0,0)" xlink:href="#bb"/><use transform="matrix(0.05,0,0,0.05,12.950000000000001,0)" xlink:href="#aL"/><use transform="matrix(0.05,0,0,0.05,22.950000000000003,0)" xlink:href="#aU"/><use transform="matrix(0.05,0,0,0.05,32.95,0)" xlink:href="#az"/><use transform="matrix(0.04938271604938272,0,0,0.04938271604938272,37.95,0)" xlink:href="#aJ"/><use transform="matrix(0.04938271604938272,0,0,0.04938271604938272,41.85123456790124,0)" xlink:href="#ay"/><use transform="matrix(0.04938271604938272,0,0,0.04938271604938272,51.72777777777778,0)" xlink:href="#aC"/></g><path d="M30 0v-248h187v28H63v79h144v27H63v87h162V0H30" id="bz"/><g id="K"><use transform="matrix(0.05,0,0,0.05,0,0)" xlink:href="#bz"/><use transform="matrix(0.05,0,0,0.05,12,0)" xlink:href="#aI"/><use transform="matrix(0.05,0,0,0.05,15.949999999999998,0)" xlink:href="#aD"/><use transform="matrix(0.05,0,0,0.05,25.950000000000003,0)" xlink:href="#aY"/><use transform="matrix(0.05,0,0,0.05,34.95,0)" xlink:href="#az"/><use transform="matrix(0.05,0,0,0.05,39.95,0)" xlink:href="#aJ"/><use transform="matrix(0.05,0,0,0.05,43.900000000000006,0)" xlink:href="#aK"/></g><g id="L"><use transform="matrix(0.05,0,0,0.05,0,0)" xlink:href="#ax"/><use transform="matrix(0.05,0,0,0.05,5,0)" xlink:href="#bx"/></g><g id="M"><use transform="matrix(0.05,0,0,0.05,0,0)" xlink:href="#aG"/><use transform="matrix(0.05,0,0,0.05,12,0)" xlink:href="#ay"/><use transform="matrix(0.05,0,0,0.05,22,0)" xlink:href="#aY"/><use transform="matrix(0.05,0,0,0.05,31,0)" xlink:href="#aJ"/><use transform="matrix(0.05,0,0,0.05,34.95,0)" xlink:href="#aT"/><use transform="matrix(0.05,0,0,0.05,44.95,0)" xlink:href="#aI"/><use transform="matrix(0.05,0,0,0.05,48.900000000000006,0)" xlink:href="#aA"/></g><path d="M240 0l2-218c-23 76-54 145-80 218h-23L58-218 59 0H30v-248h44l77 211c21-75 51-140 76-211h43V0h-30" id="bA"/><g id="N"><use transform="matrix(0.05,0,0,0.05,0,0)" xlink:href="#bA"/><use transform="matrix(0.05,0,0,0.05,14.950000000000001,0)" xlink:href="#aD"/><use transform="matrix(0.05,0,0,0.05,24.950000000000003,0)" xlink:href="#aY"/><use transform="matrix(0.05,0,0,0.05,33.95,0)" xlink:href="#az"/><use transform="matrix(0.05,0,0,0.05,38.95,0)" xlink:href="#aA"/><use transform="matrix(0.05,0,0,0.05,48.95,0)" xlink:href="#aB"/></g><path d="M194 0L95-120 63-95V0H30v-248h33v124l119-124h40L117-140 236 0h-42" id="bB"/><g id="O"><use transform="matrix(0.05,0,0,0.05,0,0)" xlink:href="#bB"/><use transform="matrix(0.05,0,0,0.05,12,0)" xlink:href="#aU"/><use transform="matrix(0.05,0,0,0.05,22,0)" xlink:href="#aT"/><use transform="matrix(0.05,0,0,0.05,32,0)" xlink:href="#aA"/><use transform="matrix(0.05,0,0,0.05,42,0)" xlink:href="#aB"/><use transform="matrix(0.05,0,0,0.05,47.95,0)" xlink:href="#ay"/><use transform="matrix(0.05,0,0,0.05,57.95,0)" xlink:href="#aA"/><use transform="matrix(0.05,0,0,0.05,67.95,0)" xlink:href="#az"/><use transform="matrix(0.05,0,0,0.05,72.95,0)" xlink:href="#aA"/><use transform="matrix(0.05,0,0,0.05,82.95,0)" xlink:href="#aY"/></g></defs></g></svg>