<svg xmlns="http://www.w3.org/2000/svg" xmlns:xlink="http://www.w3.org/1999/xlink" xmlns:lucid="lucid" width="840" height="860"><g transform="translate(-180 -80)" lucid:page-tab-id="0_0"><path d="M386.67 108c0-4.42 3.58-8 8-8H992c4.42 0 8 3.58 8 8v804c0 4.42-3.58 8-8 8H394.67c-4.42 0-8-3.58-8-8z" stroke="#232f3e" fill="#fff" fill-opacity="0"/><path d="M386.67 100h56v56h-56v-56z" stroke="#fff" stroke-opacity="0" fill="#232f3e"/><path d="M427.55 141.22h-25c-4.13.05-7.57-3.1-7.9-7.2v-.64c-.15-3.4 1.97-6.38 5.25-7.36v-.66c.12-4.22 2.44-7.75 6.24-9.57 4.12-1.86 8.72-.96 11.8 2.3 1.08 1.1 1.84 2.2 2.44 3.6 1.2-1 2.72-1.32 4.24-.9 2.25.8 3.7 2.74 3.77 5.1 3.67.65 6.3 3.8 6.27 7.56 0 7.07-7.04 7.73-7.12 7.76zm-26.7-13.88c-2.83.6-4.75 3.14-4.6 6.04v.53c.3 3.33 3.1 5.84 6.4 5.76h24.98c3.04-.3 5.4-2.64 5.68-5.7.3-3.43-2.23-6.5-5.67-6.78-.44-.05-.72-.44-.64-.87.07-1.83-1-3.44-2.74-4.13-1.32-.37-2.64.13-3.44 1.24-.2.25-.44.38-.76.33-.28-.05-.48-.24-.6-.5-.6-1.6-1.4-2.85-2.6-4.04-2.68-2.8-6.6-3.6-10.12-2-3.24 1.6-5.2 4.63-5.32 8.24-.04.4-.04.74 0 1.14.04.4-.2.76-.6.84z" stroke="#fff" stroke-opacity="0" fill="#fff"/><use xlink:href="#a" transform="matrix(1,0,0,1,457.66666666666674,120) translate(0 14.4)"/><use xlink:href="#b" transform="matrix(1,0,0,1,457.66666666666674,120) translate(45.3 14.4)"/><path d="M222.44 511.78H201.7c-.95 0-1.7-.76-1.7-1.7v-2.54c0-9.48 6.23-17.44 15.5-19.67.4-.1.8-.04 1.2.17 2.73 1.46 5.68 1.46 8.4 0 .4-.2.8-.26 1.22-.17 2.43.6 4.43 1.47 6.5 2.85l-1.9 2.83c-1.55-1-3-1.68-4.8-2.15-3.45 1.58-7 1.58-10.43 0-7.4 2.06-12.3 8.5-12.3 16.14v.84h19.04z" stroke="#fff" stroke-opacity="0" fill="#232f3e"/><path d="M220.88 492.46c-6.17 0-11.17-5-11.17-11.14 0-6.16 5-11.15 11.18-11.15 6.16-.07 11.2 4.88 11.26 11 .04 4.27-2.1 7.9-5.86 9.9-1.72.97-3.4 1.4-5.4 1.4zm0-18.9c-4.3 0-7.83 3.45-7.85 7.76 0 2.92 1.48 5.4 4.06 6.8 2.43 1.3 5.12 1.3 7.57 0 2.6-1.4 4.1-3.95 4.06-6.9-.05-4.27-3.57-7.68-7.85-7.64zM278.32 511.78h-20.75v-3.4h19.04v-.83c0-7.67-4.9-14.1-12.25-16.17-3.45 1.6-7 1.6-10.46 0-1.82.5-3.3 1.2-4.84 2.28l-1.94-2.8c2.07-1.44 4.08-2.35 6.5-2.97.44-.1.86-.06 1.26.16 2.7 1.46 5.7 1.46 8.42 0 .4-.22.8-.27 1.2-.17 9.25 2.22 15.5 10.16 15.5 19.65v2.53c0 .94-.76 1.68-1.68 1.7z" stroke="#fff" stroke-opacity="0" fill="#232f3e"/><path d="M259.08 492.46c-6.2 0-11.23-5.05-11.23-11.25s5.06-11.2 11.28-11.2c6.2 0 11.23 5.05 11.23 11.25 0 4.23-2.14 7.82-5.85 9.84-1.75.94-3.44 1.36-5.42 1.36zm0-18.9c-4.3 0-7.8 3.45-7.83 7.76-.02 2.92 1.46 5.42 4.05 6.8 2.43 1.3 5.13 1.3 7.6 0 2.62-1.4 4.13-3.97 4.08-6.96-.1-4.26-3.62-7.68-7.9-7.6zM267.2 550h-54.46c-.92 0-1.67-.75-1.67-1.7v-3.6c-.06-13.1 8.6-24.1 21.32-27.18.46-.13.86-.06 1.27.13 4.04 2.18 8.5 2.18 12.6 0 .34-.2.75-.26 1.2-.13 12.78 3.06 21.45 14.06 21.4 27.18v3.6c0 .95-.76 1.7-1.68 1.7zm-52.72-3.38h50.97v-1.92c0-11.27-7.28-20.74-18.2-23.66-4.8 2.3-9.83 2.3-14.62 0-10.93 2.92-18.15 12.4-18.15 23.66z" stroke="#fff" stroke-opacity="0" fill="#232f3e"/><path d="M240.02 522.64c-2.7 0-5-.58-7.4-1.86-7.4-4.07-10.13-13.34-6.1-20.77 4.1-7.4 13.38-10.12 20.83-6.08 7.42 4.07 10.15 13.34 6.1 20.77-1.47 2.68-3.4 4.6-6.1 6.08-2.36 1.28-4.66 1.86-7.33 1.86zm0-26.76c-4.44-.06-8.28 2.17-10.42 6.1-3.07 5.64-.98 12.74 4.7 15.83 3.67 1.97 7.7 1.97 11.4 0 3.95-2.13 6.22-5.95 6.16-10.42-.1-6.42-5.4-11.6-11.84-11.5z" stroke="#fff" stroke-opacity="0" fill="#232f3e"/><path d="M278.78 511.78h-39.72c-.68 0-1.23-.54-1.23-1.23v-2.64c-.04-9.53 6.3-17.56 15.56-19.8.33-.1.63-.06.92.08 2.95 1.6 6.2 1.6 9.2 0 .25-.14.54-.2.88-.1 9.32 2.24 15.64 10.27 15.6 19.83v2.65c0 .7-.55 1.23-1.22 1.23zm-38.46-2.47h37.2v-1.4c0-8.2-5.32-15.1-13.3-17.25-3.5 1.7-7.16 1.7-10.66 0-7.97 2.14-13.24 9.05-13.24 17.26z" stroke="#fff" stroke-opacity="0" stroke-width=".73" fill="#fff" fill-opacity="0"/><path d="M240.94 511.78h-39.72c-.67 0-1.22-.54-1.22-1.23v-2.64c-.04-9.53 6.28-17.56 15.56-19.8.34-.1.63-.06.93.08 2.94 1.6 6.2 1.6 9.18 0 .25-.14.55-.2.88-.1 9.32 2.24 15.65 10.27 15.6 19.83v2.65c0 .7-.54 1.23-1.22 1.23zm-38.45-2.47h37.18v-1.4c0-8.2-5.3-15.1-13.28-17.25-3.5 1.7-7.17 1.7-10.67 0-7.97 2.14-13.24 9.05-13.24 17.26z" stroke="#fff" stroke-opacity="0" stroke-width=".73" fill="#fff" fill-opacity="0"/><use xlink:href="#c" transform="matrix(1,0,0,1,170,559) translate(46.55 14.4)"/><path d="M281 510h86.66" stroke="#000" stroke-width="2" fill="none"/><path d="M281.03 511h-1.2l.17-.45V509h1.03z"/><path d="M382.93 510l-14.27 4.64v-9.28z" stroke="#000" stroke-width="2"/><path d="M451 529.56L429.9 540V420l21.1 10.56v99z" fill="#f58536"/><path d="M408.8 529.56L429.9 540V420l-21.1 10.56v99z" fill="#9d5025"/><path d="M421.94 463.66l-35.58-4.5v-17.5l35.58 8.34v13.66z" fill="#f58536"/><path d="M380 444.83l6.36-3.16v17.5L380 460.9v-16.07z" fill="#9d5025"/><path d="M421.95 463.65l-7.38 1.1L380 460.9l6.38-1.74 35.57 4.5z" fill="#6b3a19"/><path d="M474.72 495.08L480 494v-14h-5.28v15.08z" fill="#f58536"/><path d="M437.8 491.92l36.9 3.42V480h-36.9v11.92z" fill="#9d5025"/><use xlink:href="#d" transform="matrix(1,0,0,1,380,540) translate(17.025 14.4)"/><use xlink:href="#e" transform="matrix(1,0,0,1,380,540) translate(13.524999999999999 36)"/><use xlink:href="#f" transform="matrix(1,0,0,1,380,540) translate(66.475 36)"/><path d="M546.67 202c0-16.57 13.43-30 30-30H930c16.57 0 30 13.43 30 30v272.18c0 16.57-13.43 30-30 30H576.67c-16.57 0-30-13.43-30-30z" stroke="#474747" fill-opacity="0"/><path d="M654.66 174.4v3.54c0 6.42-7.1 13.05-15.75 13.05h-46.47c-8.66 0-15.76-6.64-15.76-13.06v-3.54z" fill="#9d5125"/><path d="M606.7 140c8.03 0 14.8 4.4 18.17 11.67 4.6-3.14 10.9-1.98 14.03 2.65 1.17 1.64 1.72 3.32 1.8 5.3 7.88.68 13.96 8.25 13.96 14.27v1.3c0 6.45-7.1 13-15.76 13h-46.48c-8.66 0-15.75-6.55-15.75-13v-1.3c0-5.02 4.2-11.87 10.06-13.56v-.57c.08-10.95 8.97-19.82 19.96-19.77z" fill="#f58535"/><path d="M595.57 163.13h3.08l3.1 14.58 3.32-14.54h3.1l-4.6 18.2h-3.7zM610.04 163.13h5.77c3.5 0 5.05 2.2 5.05 5.3 0 3.1-1.92 5.4-5.33 5.4h-2.58v7.53h-2.9zm2.9 8.5h2.08c1.56 0 2.9-.83 2.9-3.14 0-1.98-.78-3.17-3.12-3.17h-1.86zM634.48 174.83v.38c0 3.32-1.33 6.52-5.62 6.52-4.6 0-6.03-2.97-6.03-9.47s1.43-9.46 6.05-9.46c5.18 0 5.53 3.8 5.53 5.7v.37h-2.9v-.3c0-1.7-.5-3.64-2.6-3.57-2.08.08-3.1 1.35-3.1 7.22 0 5.87.93 7.3 3.14 7.3 2.43 0 2.72-2.7 2.72-4.42v-.3z" fill="#fff"/><use xlink:href="#g" transform="matrix(1,0,0,1,546.6666666666279,474.17764331095384) translate(147.575 12.799999999999999)"/><use xlink:href="#h" transform="matrix(1,0,0,1,546.6666666666279,474.17764331095384) translate(238.475 12.799999999999999)"/><path d="M546.67 575.33c0-16.57 13.43-30 30-30H930c16.57 0 30 13.43 30 30V847.5c0 16.58-13.43 30-30 30H576.67c-16.57 0-30-13.42-30-30z" stroke="#474747" fill-opacity="0"/><path d="M654.66 547.74v3.53c0 6.42-7.1 13.06-15.75 13.06h-46.47c-8.66 0-15.76-6.64-15.76-13.06v-3.53z" fill="#9d5125"/><path d="M606.7 513.33c8.03 0 14.8 4.4 18.17 11.67 4.6-3.13 10.9-1.98 14.03 2.65 1.17 1.64 1.72 3.33 1.8 5.3 7.88.68 13.96 8.25 13.96 14.28v1.3c0 6.46-7.1 13-15.76 13h-46.48c-8.66 0-15.75-6.54-15.75-13v-1.3c0-5.02 4.2-11.86 10.06-13.55v-.58c.08-10.94 8.97-19.8 19.96-19.77z" fill="#f58535"/><path d="M595.57 536.46h3.08l3.1 14.58 3.32-14.54h3.1l-4.6 18.2h-3.7zM610.04 536.46h5.77c3.5 0 5.05 2.2 5.05 5.3 0 3.1-1.92 5.4-5.33 5.4h-2.58v7.53h-2.9zm2.9 8.5h2.08c1.56 0 2.9-.82 2.9-3.14 0-1.97-.78-3.15-3.12-3.15h-1.86zM634.48 548.16v.38c0 3.32-1.33 6.52-5.62 6.52-4.6 0-6.03-2.98-6.03-9.47 0-6.5 1.43-9.48 6.05-9.48 5.18 0 5.53 3.83 5.53 5.72v.36h-2.9v-.3c0-1.7-.5-3.64-2.6-3.56-2.08.07-3.1 1.34-3.1 7.2 0 5.88.93 7.32 3.14 7.32 2.43 0 2.72-2.7 2.72-4.43v-.3z" fill="#fff"/><use xlink:href="#g" transform="matrix(1,0,0,1,546.6666666666279,847.5109766442873) translate(143.6 12.799999999999999)"/><use xlink:href="#i" transform="matrix(1,0,0,1,546.6666666666279,847.5109766442873) translate(234.5 12.799999999999999)"/><path d="M661.67 342.36c0 31.8-25.76 57.63-57.5 57.63s-57.5-25.83-57.5-57.64c0-31.8 25.76-57.63 57.5-57.63s57.5 25.82 57.5 57.63z" fill="#9d5025"/><path d="M661.67 337.63c0 31.8-25.76 57.63-57.5 57.63s-57.5-25.82-57.5-57.63c0-31.8 25.76-57.63 57.5-57.63s57.5 25.82 57.5 57.63z" fill="#f58536"/><path d="M620.93 291.08V312h-33.55v-20.92h33.55zM646.9 351.64v17.04h-17v-17.04h17zM625.4 351.64v17.04h-17v-17.04h17zM599.22 351.64v17.04h-17v-17.04h17zM577.72 351.64v17.04h-17v-17.04h17z" fill="#fff"/><path d="M567.7 336.9h3.05v16.7h-3.06v-16.7z" fill="#fff"/><path d="M567.7 336.9h24.55v3.05H567.7v-3.06z" fill="#fff"/><path d="M589.2 336.9h3.05v16.7h-3.06v-16.7zM615.37 336.9h3.06v16.7h-3.06v-16.7z" fill="#fff"/><path d="M615.37 336.9h24.56v3.05h-24.56v-3.06z" fill="#fff"/><path d="M636.87 336.9h3.06v16.7h-3.06v-16.7zM578.46 324.95h3.06v13.47h-3.06v-13.47zM602.63 308.92h3.05v16.28h-3.05v-16.28z" fill="#fff"/><path d="M578.46 323.67h50.78v3.06h-50.78v-3.06z" fill="#fff"/><path d="M626.18 324.95h3.06v13.47h-3.06v-13.47z" fill="#fff"/><use xlink:href="#j" transform="matrix(1,0,0,1,546.6666666666279,400) translate(13.574999999999996 14.4)"/><use xlink:href="#k" transform="matrix(1,0,0,1,546.6666666666279,400) translate(37.5 36)"/><use xlink:href="#l" transform="matrix(1,0,0,1,546.6666666666279,400) translate(22.049999999999997 57.6)"/><path d="M661.67 722.36c0 31.8-25.76 57.63-57.5 57.63s-57.5-25.83-57.5-57.64c0-31.8 25.76-57.63 57.5-57.63s57.5 25.82 57.5 57.63z" fill="#9d5025"/><path d="M661.67 717.63c0 31.8-25.76 57.63-57.5 57.63s-57.5-25.82-57.5-57.63c0-31.8 25.76-57.63 57.5-57.63s57.5 25.82 57.5 57.63z" fill="#f58536"/><path d="M620.93 671.08V692h-33.55v-20.92h33.55zM646.9 731.64v17.04h-17v-17.04h17zM625.4 731.64v17.04h-17v-17.04h17zM599.22 731.64v17.04h-17v-17.04h17zM577.72 731.64v17.04h-17v-17.04h17z" fill="#fff"/><path d="M567.7 716.9h3.05v16.7h-3.06v-16.7z" fill="#fff"/><path d="M567.7 716.9h24.55v3.05H567.7v-3.06z" fill="#fff"/><path d="M589.2 716.9h3.05v16.7h-3.06v-16.7zM615.37 716.9h3.06v16.7h-3.06v-16.7z" fill="#fff"/><path d="M615.37 716.9h24.56v3.05h-24.56v-3.06z" fill="#fff"/><path d="M636.87 716.9h3.06v16.7h-3.06v-16.7zM578.46 704.95h3.06v13.47h-3.06v-13.47zM602.63 688.92h3.05v16.28h-3.05v-16.28z" fill="#fff"/><path d="M578.46 703.67h50.78v3.06h-50.78v-3.06z" fill="#fff"/><path d="M626.18 704.95h3.06v13.47h-3.06v-13.47z" fill="#fff"/><use xlink:href="#j" transform="matrix(1,0,0,1,546.6666666666279,780) translate(13.574999999999996 14.4)"/><use xlink:href="#k" transform="matrix(1,0,0,1,546.6666666666279,780) translate(37.5 36)"/><use xlink:href="#l" transform="matrix(1,0,0,1,546.6666666666279,780) translate(22.049999999999997 57.6)"/><path d="M514.6 485H481v-2h31.6v-55.2h2zm14.12-134h-14.1v55.2h-2V349h16.1z"/><path d="M481.02 485H480v-2H481zM544 350l-14.28 4.64v-9.28z"/><path d="M547.22 350l-18.5 6v-12zm-16.5 3.26l10.03-3.26-10.03-3.26z"/><g><use xlink:href="#m" transform="matrix(1,0,0,1,495.60581237426186,406.19972001119953) translate(0 14.4)"/></g><path d="M514.08 732.5h13.58v2h-15.58V598.3h2zm0-155.8h-2V485h-31.1v-2h33.1z"/><path d="M481.02 485H480v-2H481zM542.93 733.5l-14.27 4.64v-9.28z"/><path d="M546.17 733.5l-18.5 6v-12zm-16.5 3.26l10.02-3.26-10.04-3.26z"/><g><use xlink:href="#n" transform="matrix(1,0,0,1,495.07833333331394,576.7) translate(0 14.4)"/></g><defs><path fill="#232f3e" d="M205 0l-28-72H64L36 0H1l101-248h38L239 0h-34zm-38-99l-47-123c-12 45-31 82-46 123h93" id="o"/><path fill="#232f3e" d="M266 0h-40l-56-210L115 0H75L2-248h35L96-30l15-64 43-154h32l59 218 59-218h35" id="p"/><path fill="#232f3e" d="M185-189c-5-48-123-54-124 2 14 75 158 14 163 119 3 78-121 87-175 55-17-10-28-26-33-46l33-7c5 56 141 63 141-1 0-78-155-14-162-118-5-82 145-84 179-34 5 7 8 16 11 25" id="q"/><g id="a"><use transform="matrix(0.05,0,0,0.05,0,0)" xlink:href="#o"/><use transform="matrix(0.05,0,0,0.05,11.35,0)" xlink:href="#p"/><use transform="matrix(0.05,0,0,0.05,28.299999999999997,0)" xlink:href="#q"/></g><path fill="#232f3e" d="M212-179c-10-28-35-45-73-45-59 0-87 40-87 99 0 60 29 101 89 101 43 0 62-24 78-52l27 14C228-24 195 4 139 4 59 4 22-46 18-125c-6-104 99-153 187-111 19 9 31 26 39 46" id="r"/><path fill="#232f3e" d="M24 0v-261h32V0H24" id="s"/><path fill="#232f3e" d="M100-194c62-1 85 37 85 99 1 63-27 99-86 99S16-35 15-95c0-66 28-99 85-99zM99-20c44 1 53-31 53-75 0-43-8-75-51-75s-53 32-53 75 10 74 51 75" id="t"/><path fill="#232f3e" d="M84 4C-5 8 30-112 23-190h32v120c0 31 7 50 39 49 72-2 45-101 50-169h31l1 190h-30c-1-10 1-25-2-33-11 22-28 36-60 37" id="u"/><path fill="#232f3e" d="M85-194c31 0 48 13 60 33l-1-100h32l1 261h-30c-2-10 0-23-3-31C134-8 116 4 85 4 32 4 16-35 15-94c0-66 23-100 70-100zm9 24c-40 0-46 34-46 75 0 40 6 74 45 74 42 0 51-32 51-76 0-42-9-74-50-73" id="v"/><g id="b"><use transform="matrix(0.05,0,0,0.05,0,0)" xlink:href="#r"/><use transform="matrix(0.05,0,0,0.05,12.950000000000001,0)" xlink:href="#s"/><use transform="matrix(0.05,0,0,0.05,16.900000000000002,0)" xlink:href="#t"/><use transform="matrix(0.05,0,0,0.05,26.900000000000002,0)" xlink:href="#u"/><use transform="matrix(0.05,0,0,0.05,36.900000000000006,0)" xlink:href="#v"/></g><path fill="#333" d="M232-93c-1 65-40 97-104 97C67 4 28-28 28-90v-158h33c8 89-33 224 67 224 102 0 64-133 71-224h33v155" id="w"/><path fill="#333" d="M135-143c-3-34-86-38-87 0 15 53 115 12 119 90S17 21 10-45l28-5c4 36 97 45 98 0-10-56-113-15-118-90-4-57 82-63 122-42 12 7 21 19 24 35" id="x"/><path fill="#333" d="M100-194c63 0 86 42 84 106H49c0 40 14 67 53 68 26 1 43-12 49-29l28 8c-11 28-37 45-77 45C44 4 14-33 15-96c1-61 26-98 85-98zm52 81c6-60-76-77-97-28-3 7-6 17-6 28h103" id="y"/><path fill="#333" d="M114-163C36-179 61-72 57 0H25l-1-190h30c1 12-1 29 2 39 6-27 23-49 58-41v29" id="z"/><g id="c"><use transform="matrix(0.05,0,0,0.05,0,0)" xlink:href="#w"/><use transform="matrix(0.05,0,0,0.05,12.950000000000001,0)" xlink:href="#x"/><use transform="matrix(0.05,0,0,0.05,21.950000000000003,0)" xlink:href="#y"/><use transform="matrix(0.05,0,0,0.05,31.950000000000003,0)" xlink:href="#z"/><use transform="matrix(0.05,0,0,0.05,37.900000000000006,0)" xlink:href="#x"/></g><path d="M205 0l-28-72H64L36 0H1l101-248h38L239 0h-34zm-38-99l-47-123c-12 45-31 82-46 123h93" id="A"/><path d="M210-169c-67 3-38 105-44 169h-31v-121c0-29-5-50-35-48C34-165 62-65 56 0H25l-1-190h30c1 10-1 24 2 32 10-44 99-50 107 0 11-21 27-35 58-36 85-2 47 119 55 194h-31v-121c0-29-5-49-35-48" id="B"/><path d="M141-36C126-15 110 5 73 4 37 3 15-17 15-53c-1-64 63-63 125-63 3-35-9-54-41-54-24 1-41 7-42 31l-33-3c5-37 33-52 76-52 45 0 72 20 72 64v82c-1 20 7 32 28 27v20c-31 9-61-2-59-35zM48-53c0 20 12 33 32 33 41-3 63-29 60-74-43 2-92-5-92 41" id="C"/><path d="M9 0v-24l116-142H16v-24h144v24L44-24h123V0H9" id="D"/><path d="M100-194c62-1 85 37 85 99 1 63-27 99-86 99S16-35 15-95c0-66 28-99 85-99zM99-20c44 1 53-31 53-75 0-43-8-75-51-75s-53 32-53 75 10 74 51 75" id="E"/><path d="M117-194c89-4 53 116 60 194h-32v-121c0-31-8-49-39-48C34-167 62-67 57 0H25l-1-190h30c1 10-1 24 2 32 11-22 29-35 61-36" id="F"/><g id="d"><use transform="matrix(0.05,0,0,0.05,0,0)" xlink:href="#A"/><use transform="matrix(0.05,0,0,0.05,12,0)" xlink:href="#B"/><use transform="matrix(0.05,0,0,0.05,26.950000000000003,0)" xlink:href="#C"/><use transform="matrix(0.05,0,0,0.05,36.95,0)" xlink:href="#D"/><use transform="matrix(0.05,0,0,0.05,45.95,0)" xlink:href="#E"/><use transform="matrix(0.05,0,0,0.05,55.95,0)" xlink:href="#F"/></g><path d="M233-177c-1 41-23 64-60 70L243 0h-38l-65-103H63V0H30v-248c88 3 205-21 203 71zM63-129c60-2 137 13 137-47 0-61-80-42-137-45v92" id="G"/><path d="M84 4C-5 8 30-112 23-190h32v120c0 31 7 50 39 49 72-2 45-101 50-169h31l1 190h-30c-1-10 1-25-2-33-11 22-28 36-60 37" id="H"/><path d="M59-47c-2 24 18 29 38 22v24C64 9 27 4 27-40v-127H5v-23h24l9-43h21v43h35v23H59v120" id="I"/><path d="M100-194c63 0 86 42 84 106H49c0 40 14 67 53 68 26 1 43-12 49-29l28 8c-11 28-37 45-77 45C44 4 14-33 15-96c1-61 26-98 85-98zm52 81c6-60-76-77-97-28-3 7-6 17-6 28h103" id="J"/><g id="e"><use transform="matrix(0.05,0,0,0.05,0,0)" xlink:href="#G"/><use transform="matrix(0.05,0,0,0.05,12.950000000000001,0)" xlink:href="#E"/><use transform="matrix(0.05,0,0,0.05,22.950000000000003,0)" xlink:href="#H"/><use transform="matrix(0.05,0,0,0.05,32.95,0)" xlink:href="#I"/><use transform="matrix(0.05,0,0,0.05,37.95,0)" xlink:href="#J"/></g><path d="M54-142c48-35 137-8 131 61C196 18 31 33 14-55l32-4c7 23 22 37 52 37 35-1 51-22 54-58 4-55-73-65-99-34H22l8-134h141v27H59" id="K"/><path d="M126-127c33 6 58 20 58 59 0 88-139 92-164 29-3-8-5-16-6-25l32-3c6 27 21 44 54 44 32 0 52-15 52-46 0-38-36-46-79-43v-28c39 1 72-4 72-42 0-27-17-43-46-43-28 0-47 15-49 41l-32-3c6-42 35-63 81-64 48-1 79 21 79 65 0 36-21 52-52 59" id="L"/><g id="f"><use transform="matrix(0.05,0,0,0.05,0,0)" xlink:href="#K"/><use transform="matrix(0.05,0,0,0.05,10,0)" xlink:href="#L"/></g><path d="M30-248c87 1 191-15 191 75 0 78-77 80-158 76V0H30v-248zm33 125c57 0 124 11 124-50 0-59-68-47-124-48v98" id="M"/><path d="M114-163C36-179 61-72 57 0H25l-1-190h30c1 12-1 29 2 39 6-27 23-49 58-41v29" id="N"/><path d="M85-194c31 0 48 13 60 33l-1-100h32l1 261h-30c-2-10 0-23-3-31C134-8 116 4 85 4 32 4 16-35 15-94c0-66 23-100 70-100zm9 24c-40 0-46 34-46 75 0 40 6 74 45 74 42 0 51-32 51-76 0-42-9-74-50-73" id="O"/><path d="M96-169c-40 0-48 33-48 73s9 75 48 75c24 0 41-14 43-38l32 2c-6 37-31 61-74 61-59 0-76-41-82-99-10-93 101-131 147-64 4 7 5 14 7 22l-32 3c-4-21-16-35-41-35" id="P"/><path d="M24-231v-30h32v30H24zM24 0v-190h32V0H24" id="Q"/><g id="g"><use transform="matrix(0.05,0,0,0.05,0,0)" xlink:href="#M"/><use transform="matrix(0.05,0,0,0.05,12,0)" xlink:href="#N"/><use transform="matrix(0.05,0,0,0.05,17.95,0)" xlink:href="#E"/><use transform="matrix(0.05,0,0,0.05,27.950000000000003,0)" xlink:href="#O"/><use transform="matrix(0.05,0,0,0.05,37.95,0)" xlink:href="#H"/><use transform="matrix(0.05,0,0,0.05,47.95,0)" xlink:href="#P"/><use transform="matrix(0.05,0,0,0.05,56.95,0)" xlink:href="#I"/><use transform="matrix(0.05,0,0,0.05,61.95,0)" xlink:href="#Q"/><use transform="matrix(0.05,0,0,0.05,65.9,0)" xlink:href="#E"/><use transform="matrix(0.05,0,0,0.05,75.9,0)" xlink:href="#F"/></g><path d="M140-251c81 0 123 46 123 126C263-46 219 4 140 4 59 4 17-45 17-125s42-126 123-126zm0 227c63 0 89-41 89-101s-29-99-89-99c-61 0-89 39-89 99S79-25 140-24" id="R"/><path d="M24 0v-261h32V0H24" id="S"/><g id="h"><use transform="matrix(0.05,0,0,0.05,0,0)" xlink:href="#R"/><use transform="matrix(0.05,0,0,0.05,14,0)" xlink:href="#S"/><use transform="matrix(0.05,0,0,0.05,17.95,0)" xlink:href="#O"/></g><path d="M190 0L58-211 59 0H30v-248h39L202-35l-2-213h31V0h-41" id="T"/><path d="M206 0h-36l-40-164L89 0H53L-1-190h32L70-26l43-164h34l41 164 42-164h31" id="U"/><g id="i"><use transform="matrix(0.05,0,0,0.05,0,0)" xlink:href="#T"/><use transform="matrix(0.05,0,0,0.05,12.950000000000001,0)" xlink:href="#J"/><use transform="matrix(0.05,0,0,0.05,22.950000000000003,0)" xlink:href="#U"/></g><path d="M115-194c55 1 70 41 70 98S169 2 115 4C84 4 66-9 55-30l1 105H24l-1-265h31l2 30c10-21 28-34 59-34zm-8 174c40 0 45-34 45-75s-6-73-45-74c-42 0-51 32-51 76 0 43 10 73 51 73" id="V"/><g id="j"><use transform="matrix(0.05,0,0,0.05,0,0)" xlink:href="#A"/><use transform="matrix(0.05,0,0,0.05,12,0)" xlink:href="#V"/><use transform="matrix(0.05,0,0,0.05,22,0)" xlink:href="#V"/><use transform="matrix(0.05,0,0,0.05,32,0)" xlink:href="#S"/><use transform="matrix(0.05,0,0,0.05,35.95,0)" xlink:href="#Q"/><use transform="matrix(0.05,0,0,0.05,39.900000000000006,0)" xlink:href="#P"/><use transform="matrix(0.05,0,0,0.05,48.900000000000006,0)" xlink:href="#C"/><use transform="matrix(0.05,0,0,0.05,58.900000000000006,0)" xlink:href="#I"/><use transform="matrix(0.05,0,0,0.05,63.900000000000006,0)" xlink:href="#Q"/><use transform="matrix(0.05,0,0,0.05,67.85000000000001,0)" xlink:href="#E"/><use transform="matrix(0.05,0,0,0.05,77.85000000000001,0)" xlink:href="#F"/></g><path d="M30 0v-248h33v221h125V0H30" id="W"/><g id="k"><use transform="matrix(0.05,0,0,0.05,0,0)" xlink:href="#W"/><use transform="matrix(0.05,0,0,0.05,10,0)" xlink:href="#E"/><use transform="matrix(0.05,0,0,0.05,20,0)" xlink:href="#C"/><use transform="matrix(0.05,0,0,0.05,30,0)" xlink:href="#O"/></g><path d="M160-131c35 5 61 23 61 61C221 17 115-2 30 0v-248c76 3 177-17 177 60 0 33-19 50-47 57zm-97-11c50-1 110 9 110-42 0-47-63-36-110-37v79zm0 115c55-2 124 14 124-45 0-56-70-42-124-44v89" id="X"/><g id="l"><use transform="matrix(0.05,0,0,0.05,0,0)" xlink:href="#X"/><use transform="matrix(0.05,0,0,0.05,12,0)" xlink:href="#C"/><use transform="matrix(0.05,0,0,0.05,22,0)" xlink:href="#S"/><use transform="matrix(0.05,0,0,0.05,25.950000000000003,0)" xlink:href="#C"/><use transform="matrix(0.05,0,0,0.05,35.95,0)" xlink:href="#F"/><use transform="matrix(0.05,0,0,0.05,45.95,0)" xlink:href="#P"/><use transform="matrix(0.05,0,0,0.05,54.95,0)" xlink:href="#J"/><use transform="matrix(0.05,0,0,0.05,64.95,0)" xlink:href="#N"/></g><path d="M99-251c64 0 84 50 84 122C183-37 130 33 47-8c-14-7-20-23-25-40l30-5c6 39 69 39 84 7 9-19 16-44 16-74-10 22-31 35-62 35-49 0-73-33-73-83 0-54 28-83 82-83zm-1 141c31-1 51-18 51-49 0-36-14-67-51-67-34 0-49 23-49 58 0 34 15 58 49 58" id="Y"/><path d="M101-251c68 0 85 55 85 127S166 4 100 4C33 4 14-52 14-124c0-73 17-127 87-127zm-1 229c47 0 54-49 54-102s-4-102-53-102c-51 0-55 48-55 102 0 53 5 102 54 102" id="Z"/><path d="M252-156c43 0 55 33 55 80 0 46-13 78-56 78-42 0-55-33-55-78 0-48 12-80 56-80zM93 0H65l162-248h28zM13-171c-1-47 13-79 56-79s55 33 55 79-13 79-55 79c-43 0-56-33-56-79zM251-17c28 0 30-29 30-59 0-31-1-60-29-60-29 0-31 29-31 60 0 29 2 59 30 59zM69-112c27 0 28-30 29-59 0-31-1-60-29-60-29 0-30 30-30 60s2 59 30 59" id="aa"/><g id="m"><use transform="matrix(0.05,0,0,0.05,0,0)" xlink:href="#Y"/><use transform="matrix(0.05,0,0,0.05,10,0)" xlink:href="#Z"/><use transform="matrix(0.05,0,0,0.05,20,0)" xlink:href="#aa"/></g><path d="M27 0v-27h64v-190l-56 39v-29l58-41h29v221h61V0H27" id="ab"/><g id="n"><use transform="matrix(0.05,0,0,0.05,0,0)" xlink:href="#ab"/><use transform="matrix(0.05,0,0,0.05,10,0)" xlink:href="#Z"/><use transform="matrix(0.05,0,0,0.05,20,0)" xlink:href="#aa"/></g></defs></g></svg>